<mxfile host="app.diagrams.net" agent="Mozilla/5.0 (Windows NT 10.0; Win64; x64) AppleWebKit/537.36 (KHTML, like Gecko) Chrome/128.0.0.0 Safari/537.36" version="24.7.14">
  <diagram name="ETL Pipeline" id="JC4KFbSZOTXn4rWMlwvb">
    <mxGraphModel dx="4820" dy="2060" grid="1" gridSize="10" guides="1" tooltips="1" connect="1" arrows="1" fold="1" page="1" pageScale="1" pageWidth="850" pageHeight="1100" math="0" shadow="0">
      <root>
        <mxCell id="dBp1t12f0BtvVspTAIuh-0" />
        <mxCell id="dBp1t12f0BtvVspTAIuh-1" parent="dBp1t12f0BtvVspTAIuh-0" />
        <mxCell id="XNZiqSiO2Gi6l-keNqAF-0" value="Contact Centre Calls Handled Percentage" style="shape=table;startSize=30;container=1;collapsible=1;childLayout=tableLayout;fixedRows=1;rowLines=0;fontStyle=1;align=center;resizeLast=1;html=1;" parent="dBp1t12f0BtvVspTAIuh-1" vertex="1">
          <mxGeometry x="193" y="110" width="247" height="120" as="geometry">
            <mxRectangle x="920" y="-310" width="70" height="30" as="alternateBounds" />
          </mxGeometry>
        </mxCell>
        <mxCell id="XNZiqSiO2Gi6l-keNqAF-19" style="shape=tableRow;horizontal=0;startSize=0;swimlaneHead=0;swimlaneBody=0;fillColor=none;collapsible=0;dropTarget=0;points=[[0,0.5],[1,0.5]];portConstraint=eastwest;top=0;left=0;right=0;bottom=1;" parent="XNZiqSiO2Gi6l-keNqAF-0" vertex="1">
          <mxGeometry y="30" width="247" height="30" as="geometry" />
        </mxCell>
        <mxCell id="XNZiqSiO2Gi6l-keNqAF-21" value="Year" style="shape=partialRectangle;connectable=0;fillColor=none;top=0;left=0;bottom=0;right=0;align=center;spacingLeft=6;fontStyle=1;overflow=hidden;whiteSpace=wrap;html=1;" parent="XNZiqSiO2Gi6l-keNqAF-19" vertex="1">
          <mxGeometry width="100" height="30" as="geometry">
            <mxRectangle width="100" height="30" as="alternateBounds" />
          </mxGeometry>
        </mxCell>
        <mxCell id="XNZiqSiO2Gi6l-keNqAF-22" value="Calls handled Percentage" style="shape=partialRectangle;connectable=0;fillColor=none;top=0;left=0;bottom=0;right=0;align=center;spacingLeft=6;fontStyle=1;overflow=hidden;whiteSpace=wrap;html=1;" parent="XNZiqSiO2Gi6l-keNqAF-19" vertex="1">
          <mxGeometry x="100" width="147" height="30" as="geometry">
            <mxRectangle width="147" height="30" as="alternateBounds" />
          </mxGeometry>
        </mxCell>
        <mxCell id="XNZiqSiO2Gi6l-keNqAF-16" style="shape=tableRow;horizontal=0;startSize=0;swimlaneHead=0;swimlaneBody=0;fillColor=none;collapsible=0;dropTarget=0;points=[[0,0.5],[1,0.5]];portConstraint=eastwest;top=0;left=0;right=0;bottom=1;" parent="XNZiqSiO2Gi6l-keNqAF-0" vertex="1">
          <mxGeometry y="60" width="247" height="30" as="geometry" />
        </mxCell>
        <mxCell id="XNZiqSiO2Gi6l-keNqAF-18" value="2023" style="shape=partialRectangle;connectable=0;fillColor=none;top=0;left=0;bottom=0;right=0;align=center;spacingLeft=6;fontStyle=0;overflow=hidden;whiteSpace=wrap;html=1;" parent="XNZiqSiO2Gi6l-keNqAF-16" vertex="1">
          <mxGeometry width="100" height="30" as="geometry">
            <mxRectangle width="100" height="30" as="alternateBounds" />
          </mxGeometry>
        </mxCell>
        <mxCell id="XNZiqSiO2Gi6l-keNqAF-24" value="94.19%" style="shape=partialRectangle;connectable=0;fillColor=none;top=0;left=0;bottom=0;right=0;align=center;spacingLeft=6;fontStyle=0;overflow=hidden;whiteSpace=wrap;html=1;" parent="XNZiqSiO2Gi6l-keNqAF-16" vertex="1">
          <mxGeometry x="100" width="147" height="30" as="geometry">
            <mxRectangle width="147" height="30" as="alternateBounds" />
          </mxGeometry>
        </mxCell>
        <mxCell id="XNZiqSiO2Gi6l-keNqAF-1" value="" style="shape=tableRow;horizontal=0;startSize=0;swimlaneHead=0;swimlaneBody=0;fillColor=none;collapsible=0;dropTarget=0;points=[[0,0.5],[1,0.5]];portConstraint=eastwest;top=0;left=0;right=0;bottom=1;" parent="XNZiqSiO2Gi6l-keNqAF-0" vertex="1">
          <mxGeometry y="90" width="247" height="30" as="geometry" />
        </mxCell>
        <mxCell id="XNZiqSiO2Gi6l-keNqAF-3" value="2024" style="shape=partialRectangle;connectable=0;fillColor=none;top=0;left=0;bottom=0;right=0;align=center;spacingLeft=6;fontStyle=0;overflow=hidden;whiteSpace=wrap;html=1;" parent="XNZiqSiO2Gi6l-keNqAF-1" vertex="1">
          <mxGeometry width="100" height="30" as="geometry">
            <mxRectangle width="100" height="30" as="alternateBounds" />
          </mxGeometry>
        </mxCell>
        <mxCell id="XNZiqSiO2Gi6l-keNqAF-23" value="92.92%" style="shape=partialRectangle;connectable=0;fillColor=none;top=0;left=0;bottom=0;right=0;align=center;spacingLeft=6;fontStyle=0;overflow=hidden;whiteSpace=wrap;html=1;" parent="XNZiqSiO2Gi6l-keNqAF-1" vertex="1">
          <mxGeometry x="100" width="147" height="30" as="geometry">
            <mxRectangle width="147" height="30" as="alternateBounds" />
          </mxGeometry>
        </mxCell>
        <mxCell id="XNZiqSiO2Gi6l-keNqAF-236" style="edgeStyle=orthogonalEdgeStyle;rounded=0;orthogonalLoop=1;jettySize=auto;html=1;entryX=0.5;entryY=1;entryDx=0;entryDy=0;exitX=0.5;exitY=0;exitDx=0;exitDy=0;" parent="dBp1t12f0BtvVspTAIuh-1" target="XNZiqSiO2Gi6l-keNqAF-233" edge="1">
          <mxGeometry relative="1" as="geometry">
            <mxPoint x="622.0000000000005" y="1640" as="sourcePoint" />
          </mxGeometry>
        </mxCell>
        <mxCell id="XNZiqSiO2Gi6l-keNqAF-181" style="edgeStyle=orthogonalEdgeStyle;rounded=0;orthogonalLoop=1;jettySize=auto;html=1;" parent="dBp1t12f0BtvVspTAIuh-1" source="XNZiqSiO2Gi6l-keNqAF-133" edge="1">
          <mxGeometry relative="1" as="geometry">
            <mxPoint x="630" y="1800" as="targetPoint" />
            <Array as="points">
              <mxPoint x="665" y="1817" />
              <mxPoint x="630" y="1817" />
            </Array>
          </mxGeometry>
        </mxCell>
        <mxCell id="XNZiqSiO2Gi6l-keNqAF-238" style="edgeStyle=orthogonalEdgeStyle;rounded=0;orthogonalLoop=1;jettySize=auto;html=1;entryX=1;entryY=0.5;entryDx=0;entryDy=0;exitX=0.511;exitY=0.013;exitDx=0;exitDy=0;exitPerimeter=0;" parent="dBp1t12f0BtvVspTAIuh-1" source="TylbPrJ1LWOgCM8OSAjV-108" target="TylbPrJ1LWOgCM8OSAjV-120" edge="1">
          <mxGeometry relative="1" as="geometry">
            <mxPoint x="717" y="1240" as="sourcePoint" />
            <mxPoint x="717" y="940" as="targetPoint" />
            <Array as="points">
              <mxPoint x="639" y="1240" />
              <mxPoint x="640" y="1240" />
              <mxPoint x="640" y="1045" />
            </Array>
          </mxGeometry>
        </mxCell>
        <mxCell id="XNZiqSiO2Gi6l-keNqAF-233" value="&lt;font style=&quot;font-size: 18px;&quot;&gt;&lt;b&gt;Aggregate&lt;/b&gt;&lt;/font&gt;" style="shape=ellipse;html=1;dashed=0;whiteSpace=wrap;perimeter=ellipsePerimeter;strokeColor=default;align=center;verticalAlign=middle;fontFamily=Helvetica;fontSize=12;fontColor=default;fillColor=default;" parent="dBp1t12f0BtvVspTAIuh-1" vertex="1">
          <mxGeometry x="566" y="1460" width="90" height="90" as="geometry" />
        </mxCell>
        <mxCell id="XNZiqSiO2Gi6l-keNqAF-235" value="" style="edgeStyle=orthogonalEdgeStyle;rounded=0;orthogonalLoop=1;jettySize=auto;html=1;entryX=0.5;entryY=1;entryDx=0;entryDy=0;" parent="dBp1t12f0BtvVspTAIuh-1" source="TylbPrJ1LWOgCM8OSAjV-50" target="XNZiqSiO2Gi6l-keNqAF-133" edge="1">
          <mxGeometry relative="1" as="geometry">
            <mxPoint x="789.9999999999995" y="2049" as="sourcePoint" />
            <mxPoint x="683" y="1970" as="targetPoint" />
            <Array as="points">
              <mxPoint x="700" y="1995" />
              <mxPoint x="665" y="1995" />
            </Array>
          </mxGeometry>
        </mxCell>
        <mxCell id="XNZiqSiO2Gi6l-keNqAF-133" value="&lt;font style=&quot;font-size: 18px;&quot;&gt;&lt;b&gt;Remove Columns&lt;/b&gt;&lt;/font&gt;" style="shape=ellipse;html=1;dashed=0;whiteSpace=wrap;perimeter=ellipsePerimeter;strokeColor=default;align=center;verticalAlign=middle;fontFamily=Helvetica;fontSize=12;fontColor=default;fillColor=default;" parent="dBp1t12f0BtvVspTAIuh-1" vertex="1">
          <mxGeometry x="620" y="1870" width="90" height="90" as="geometry" />
        </mxCell>
        <mxCell id="XNZiqSiO2Gi6l-keNqAF-237" style="edgeStyle=orthogonalEdgeStyle;rounded=0;orthogonalLoop=1;jettySize=auto;html=1;exitX=0.5;exitY=0;exitDx=0;exitDy=0;" parent="dBp1t12f0BtvVspTAIuh-1" source="XNZiqSiO2Gi6l-keNqAF-233" target="TylbPrJ1LWOgCM8OSAjV-114" edge="1">
          <mxGeometry relative="1" as="geometry">
            <mxPoint x="611" y="1450" as="sourcePoint" />
            <mxPoint x="760" y="1380" as="targetPoint" />
            <Array as="points">
              <mxPoint x="611" y="1430" />
              <mxPoint x="570" y="1430" />
            </Array>
          </mxGeometry>
        </mxCell>
        <mxCell id="FCFZZAjVjaETikw97Oay-72" style="edgeStyle=orthogonalEdgeStyle;rounded=0;orthogonalLoop=1;jettySize=auto;html=1;entryX=0.5;entryY=1;entryDx=0;entryDy=0;" parent="dBp1t12f0BtvVspTAIuh-1" target="FCFZZAjVjaETikw97Oay-71" edge="1">
          <mxGeometry relative="1" as="geometry">
            <mxPoint x="-130" y="2049" as="sourcePoint" />
          </mxGeometry>
        </mxCell>
        <mxCell id="FCFZZAjVjaETikw97Oay-92" style="edgeStyle=orthogonalEdgeStyle;rounded=0;orthogonalLoop=1;jettySize=auto;html=1;entryX=0.5;entryY=1;entryDx=0;entryDy=0;" parent="dBp1t12f0BtvVspTAIuh-1" source="FCFZZAjVjaETikw97Oay-54" target="FCFZZAjVjaETikw97Oay-90" edge="1">
          <mxGeometry relative="1" as="geometry">
            <Array as="points">
              <mxPoint x="-9" y="1595" />
              <mxPoint x="10" y="1595" />
              <mxPoint x="10" y="1550" />
            </Array>
          </mxGeometry>
        </mxCell>
        <mxCell id="FCFZZAjVjaETikw97Oay-54" value="Contact Centre - 2023" style="shape=table;startSize=40;container=1;collapsible=1;childLayout=tableLayout;fixedRows=1;rowLines=0;fontStyle=1;align=center;resizeLast=1;html=1;" parent="dBp1t12f0BtvVspTAIuh-1" vertex="1">
          <mxGeometry x="-299" y="1640" width="580" height="156" as="geometry">
            <mxRectangle x="920" y="-310" width="70" height="30" as="alternateBounds" />
          </mxGeometry>
        </mxCell>
        <mxCell id="FCFZZAjVjaETikw97Oay-55" style="shape=tableRow;horizontal=0;startSize=0;swimlaneHead=0;swimlaneBody=0;fillColor=none;collapsible=0;dropTarget=0;points=[[0,0.5],[1,0.5]];portConstraint=eastwest;top=0;left=0;right=0;bottom=1;" parent="FCFZZAjVjaETikw97Oay-54" vertex="1">
          <mxGeometry y="40" width="580" height="26" as="geometry" />
        </mxCell>
        <mxCell id="FCFZZAjVjaETikw97Oay-56" value="Year" style="shape=partialRectangle;connectable=0;fillColor=none;top=0;left=0;bottom=0;right=0;align=center;spacingLeft=6;fontStyle=1;overflow=hidden;whiteSpace=wrap;html=1;" parent="FCFZZAjVjaETikw97Oay-55" vertex="1">
          <mxGeometry width="100" height="26" as="geometry">
            <mxRectangle width="100" height="26" as="alternateBounds" />
          </mxGeometry>
        </mxCell>
        <mxCell id="FCFZZAjVjaETikw97Oay-57" value="CallsOffered" style="shape=partialRectangle;connectable=0;fillColor=none;top=0;left=0;bottom=0;right=0;align=center;spacingLeft=6;fontStyle=1;overflow=hidden;whiteSpace=wrap;html=1;" parent="FCFZZAjVjaETikw97Oay-55" vertex="1">
          <mxGeometry x="100" width="160" height="26" as="geometry">
            <mxRectangle width="160" height="26" as="alternateBounds" />
          </mxGeometry>
        </mxCell>
        <mxCell id="FCFZZAjVjaETikw97Oay-58" value="Callshandled" style="shape=partialRectangle;connectable=0;fillColor=none;top=0;left=0;bottom=0;right=0;align=center;spacingLeft=6;fontStyle=1;overflow=hidden;whiteSpace=wrap;html=1;" parent="FCFZZAjVjaETikw97Oay-55" vertex="1">
          <mxGeometry x="260" width="160" height="26" as="geometry">
            <mxRectangle width="160" height="26" as="alternateBounds" />
          </mxGeometry>
        </mxCell>
        <mxCell id="TylbPrJ1LWOgCM8OSAjV-83" value="BI_ID" style="shape=partialRectangle;connectable=0;fillColor=none;top=0;left=0;bottom=0;right=0;align=center;spacingLeft=6;fontStyle=1;overflow=hidden;whiteSpace=wrap;html=1;" parent="FCFZZAjVjaETikw97Oay-55" vertex="1">
          <mxGeometry x="420" width="160" height="26" as="geometry">
            <mxRectangle width="160" height="26" as="alternateBounds" />
          </mxGeometry>
        </mxCell>
        <mxCell id="FCFZZAjVjaETikw97Oay-59" value="" style="shape=tableRow;horizontal=0;startSize=0;swimlaneHead=0;swimlaneBody=0;fillColor=none;collapsible=0;dropTarget=0;points=[[0,0.5],[1,0.5]];portConstraint=eastwest;top=0;left=0;right=0;bottom=1;" parent="FCFZZAjVjaETikw97Oay-54" vertex="1">
          <mxGeometry y="66" width="580" height="30" as="geometry" />
        </mxCell>
        <mxCell id="FCFZZAjVjaETikw97Oay-60" value="2023" style="shape=partialRectangle;connectable=0;fillColor=none;top=0;left=0;bottom=0;right=0;align=center;spacingLeft=6;fontStyle=0;overflow=hidden;whiteSpace=wrap;html=1;" parent="FCFZZAjVjaETikw97Oay-59" vertex="1">
          <mxGeometry width="100" height="30" as="geometry">
            <mxRectangle width="100" height="30" as="alternateBounds" />
          </mxGeometry>
        </mxCell>
        <mxCell id="FCFZZAjVjaETikw97Oay-61" value="&lt;span style=&quot;text-align: -webkit-right;&quot;&gt;384&lt;/span&gt;" style="shape=partialRectangle;connectable=0;fillColor=none;top=0;left=0;bottom=0;right=0;align=center;spacingLeft=6;fontStyle=0;overflow=hidden;whiteSpace=wrap;html=1;" parent="FCFZZAjVjaETikw97Oay-59" vertex="1">
          <mxGeometry x="100" width="160" height="30" as="geometry">
            <mxRectangle width="160" height="30" as="alternateBounds" />
          </mxGeometry>
        </mxCell>
        <mxCell id="FCFZZAjVjaETikw97Oay-62" value="&lt;span style=&quot;text-align: -webkit-right;&quot;&gt;343&lt;/span&gt;" style="shape=partialRectangle;connectable=0;fillColor=none;top=0;left=0;bottom=0;right=0;align=center;spacingLeft=6;fontStyle=0;overflow=hidden;whiteSpace=wrap;html=1;" parent="FCFZZAjVjaETikw97Oay-59" vertex="1">
          <mxGeometry x="260" width="160" height="30" as="geometry">
            <mxRectangle width="160" height="30" as="alternateBounds" />
          </mxGeometry>
        </mxCell>
        <mxCell id="TylbPrJ1LWOgCM8OSAjV-84" value="214" style="shape=partialRectangle;connectable=0;fillColor=none;top=0;left=0;bottom=0;right=0;align=center;spacingLeft=6;fontStyle=0;overflow=hidden;whiteSpace=wrap;html=1;" parent="FCFZZAjVjaETikw97Oay-59" vertex="1">
          <mxGeometry x="420" width="160" height="30" as="geometry">
            <mxRectangle width="160" height="30" as="alternateBounds" />
          </mxGeometry>
        </mxCell>
        <mxCell id="Dvh_mKx-WvRcS-OTIoeQ-27" style="shape=tableRow;horizontal=0;startSize=0;swimlaneHead=0;swimlaneBody=0;fillColor=none;collapsible=0;dropTarget=0;points=[[0,0.5],[1,0.5]];portConstraint=eastwest;top=0;left=0;right=0;bottom=1;" parent="FCFZZAjVjaETikw97Oay-54" vertex="1">
          <mxGeometry y="96" width="580" height="30" as="geometry" />
        </mxCell>
        <mxCell id="Dvh_mKx-WvRcS-OTIoeQ-28" value="2023" style="shape=partialRectangle;connectable=0;fillColor=none;top=0;left=0;bottom=0;right=0;align=center;spacingLeft=6;fontStyle=0;overflow=hidden;whiteSpace=wrap;html=1;" parent="Dvh_mKx-WvRcS-OTIoeQ-27" vertex="1">
          <mxGeometry width="100" height="30" as="geometry">
            <mxRectangle width="100" height="30" as="alternateBounds" />
          </mxGeometry>
        </mxCell>
        <mxCell id="Dvh_mKx-WvRcS-OTIoeQ-29" value="436" style="shape=partialRectangle;connectable=0;fillColor=none;top=0;left=0;bottom=0;right=0;align=center;spacingLeft=6;fontStyle=0;overflow=hidden;whiteSpace=wrap;html=1;" parent="Dvh_mKx-WvRcS-OTIoeQ-27" vertex="1">
          <mxGeometry x="100" width="160" height="30" as="geometry">
            <mxRectangle width="160" height="30" as="alternateBounds" />
          </mxGeometry>
        </mxCell>
        <mxCell id="Dvh_mKx-WvRcS-OTIoeQ-30" value="429" style="shape=partialRectangle;connectable=0;fillColor=none;top=0;left=0;bottom=0;right=0;align=center;spacingLeft=6;fontStyle=0;overflow=hidden;whiteSpace=wrap;html=1;" parent="Dvh_mKx-WvRcS-OTIoeQ-27" vertex="1">
          <mxGeometry x="260" width="160" height="30" as="geometry">
            <mxRectangle width="160" height="30" as="alternateBounds" />
          </mxGeometry>
        </mxCell>
        <mxCell id="Dvh_mKx-WvRcS-OTIoeQ-31" value="215" style="shape=partialRectangle;connectable=0;fillColor=none;top=0;left=0;bottom=0;right=0;align=center;spacingLeft=6;fontStyle=0;overflow=hidden;whiteSpace=wrap;html=1;" parent="Dvh_mKx-WvRcS-OTIoeQ-27" vertex="1">
          <mxGeometry x="420" width="160" height="30" as="geometry">
            <mxRectangle width="160" height="30" as="alternateBounds" />
          </mxGeometry>
        </mxCell>
        <mxCell id="FCFZZAjVjaETikw97Oay-67" value="" style="shape=tableRow;horizontal=0;startSize=0;swimlaneHead=0;swimlaneBody=0;fillColor=none;collapsible=0;dropTarget=0;points=[[0,0.5],[1,0.5]];portConstraint=eastwest;top=0;left=0;right=0;bottom=0;" parent="FCFZZAjVjaETikw97Oay-54" vertex="1">
          <mxGeometry y="126" width="580" height="30" as="geometry" />
        </mxCell>
        <mxCell id="FCFZZAjVjaETikw97Oay-68" value="2023" style="shape=partialRectangle;connectable=0;fillColor=none;top=0;left=0;bottom=0;right=0;align=center;spacingLeft=6;overflow=hidden;whiteSpace=wrap;html=1;fontStyle=0" parent="FCFZZAjVjaETikw97Oay-67" vertex="1">
          <mxGeometry width="100" height="30" as="geometry">
            <mxRectangle width="100" height="30" as="alternateBounds" />
          </mxGeometry>
        </mxCell>
        <mxCell id="FCFZZAjVjaETikw97Oay-69" value="&lt;span style=&quot;color: rgb(0, 0, 0); font-family: Helvetica; font-size: 12px; font-style: normal; font-variant-ligatures: normal; font-variant-caps: normal; font-weight: 400; letter-spacing: normal; orphans: 2; text-align: -webkit-right; text-indent: 0px; text-transform: none; widows: 2; word-spacing: 0px; -webkit-text-stroke-width: 0px; white-space: normal; background-color: rgb(251, 251, 251); text-decoration-thickness: initial; text-decoration-style: initial; text-decoration-color: initial; display: inline !important; float: none;&quot;&gt;933&lt;/span&gt;" style="shape=partialRectangle;connectable=0;fillColor=none;top=0;left=0;bottom=0;right=0;align=center;spacingLeft=6;overflow=hidden;whiteSpace=wrap;html=1;" parent="FCFZZAjVjaETikw97Oay-67" vertex="1">
          <mxGeometry x="100" width="160" height="30" as="geometry">
            <mxRectangle width="160" height="30" as="alternateBounds" />
          </mxGeometry>
        </mxCell>
        <mxCell id="FCFZZAjVjaETikw97Oay-70" value="&lt;span style=&quot;color: rgb(0, 0, 0); font-family: Helvetica; font-size: 12px; font-style: normal; font-variant-ligatures: normal; font-variant-caps: normal; font-weight: 400; letter-spacing: normal; orphans: 2; text-align: -webkit-right; text-indent: 0px; text-transform: none; widows: 2; word-spacing: 0px; -webkit-text-stroke-width: 0px; white-space: normal; background-color: rgb(251, 251, 251); text-decoration-thickness: initial; text-decoration-style: initial; text-decoration-color: initial; display: inline !important; float: none;&quot;&gt;908&lt;/span&gt;" style="shape=partialRectangle;connectable=0;fillColor=none;top=0;left=0;bottom=0;right=0;align=center;spacingLeft=6;overflow=hidden;whiteSpace=wrap;html=1;" parent="FCFZZAjVjaETikw97Oay-67" vertex="1">
          <mxGeometry x="260" width="160" height="30" as="geometry">
            <mxRectangle width="160" height="30" as="alternateBounds" />
          </mxGeometry>
        </mxCell>
        <mxCell id="TylbPrJ1LWOgCM8OSAjV-85" value="216" style="shape=partialRectangle;connectable=0;fillColor=none;top=0;left=0;bottom=0;right=0;align=center;spacingLeft=6;overflow=hidden;whiteSpace=wrap;html=1;" parent="FCFZZAjVjaETikw97Oay-67" vertex="1">
          <mxGeometry x="420" width="160" height="30" as="geometry">
            <mxRectangle width="160" height="30" as="alternateBounds" />
          </mxGeometry>
        </mxCell>
        <mxCell id="FCFZZAjVjaETikw97Oay-71" value="&lt;font style=&quot;font-size: 18px;&quot;&gt;&lt;b&gt;Remove&lt;/b&gt;&lt;/font&gt;&lt;div&gt;&lt;font style=&quot;font-size: 18px;&quot;&gt;&lt;b&gt;Coloumns&lt;/b&gt;&lt;/font&gt;&lt;/div&gt;" style="shape=ellipse;html=1;dashed=0;whiteSpace=wrap;perimeter=ellipsePerimeter;strokeColor=default;align=center;verticalAlign=middle;fontFamily=Helvetica;fontSize=12;fontColor=default;fillColor=default;" parent="dBp1t12f0BtvVspTAIuh-1" vertex="1">
          <mxGeometry x="-100" y="1860" width="90" height="90" as="geometry" />
        </mxCell>
        <mxCell id="FCFZZAjVjaETikw97Oay-74" style="edgeStyle=orthogonalEdgeStyle;rounded=0;orthogonalLoop=1;jettySize=auto;html=1;entryX=0.427;entryY=0.973;entryDx=0;entryDy=0;entryPerimeter=0;" parent="dBp1t12f0BtvVspTAIuh-1" source="FCFZZAjVjaETikw97Oay-71" target="FCFZZAjVjaETikw97Oay-67" edge="1">
          <mxGeometry relative="1" as="geometry" />
        </mxCell>
        <mxCell id="FCFZZAjVjaETikw97Oay-94" style="edgeStyle=orthogonalEdgeStyle;rounded=0;orthogonalLoop=1;jettySize=auto;html=1;entryX=0;entryY=0.5;entryDx=0;entryDy=0;" parent="dBp1t12f0BtvVspTAIuh-1" source="FCFZZAjVjaETikw97Oay-77" target="TylbPrJ1LWOgCM8OSAjV-120" edge="1">
          <mxGeometry relative="1" as="geometry">
            <mxPoint x="105" y="1129.9999999999995" as="targetPoint" />
            <Array as="points">
              <mxPoint y="1045" />
            </Array>
          </mxGeometry>
        </mxCell>
        <mxCell id="FCFZZAjVjaETikw97Oay-77" value="Contact Centre-2023" style="shape=table;startSize=37;container=1;collapsible=1;childLayout=tableLayout;fixedRows=1;rowLines=0;fontStyle=1;align=center;resizeLast=1;html=1;" parent="dBp1t12f0BtvVspTAIuh-1" vertex="1">
          <mxGeometry x="-303" y="1250" width="580" height="93" as="geometry">
            <mxRectangle x="920" y="-310" width="70" height="30" as="alternateBounds" />
          </mxGeometry>
        </mxCell>
        <mxCell id="FCFZZAjVjaETikw97Oay-78" style="shape=tableRow;horizontal=0;startSize=0;swimlaneHead=0;swimlaneBody=0;fillColor=none;collapsible=0;dropTarget=0;points=[[0,0.5],[1,0.5]];portConstraint=eastwest;top=0;left=0;right=0;bottom=1;" parent="FCFZZAjVjaETikw97Oay-77" vertex="1">
          <mxGeometry y="37" width="580" height="26" as="geometry" />
        </mxCell>
        <mxCell id="FCFZZAjVjaETikw97Oay-79" value="Year" style="shape=partialRectangle;connectable=0;fillColor=none;top=0;left=0;bottom=0;right=0;align=center;spacingLeft=6;fontStyle=1;overflow=hidden;whiteSpace=wrap;html=1;" parent="FCFZZAjVjaETikw97Oay-78" vertex="1">
          <mxGeometry width="100" height="26" as="geometry">
            <mxRectangle width="100" height="26" as="alternateBounds" />
          </mxGeometry>
        </mxCell>
        <mxCell id="FCFZZAjVjaETikw97Oay-80" value="Count(BI_ID)" style="shape=partialRectangle;connectable=0;fillColor=none;top=0;left=0;bottom=0;right=0;align=center;spacingLeft=6;fontStyle=1;overflow=hidden;whiteSpace=wrap;html=1;" parent="FCFZZAjVjaETikw97Oay-78" vertex="1">
          <mxGeometry x="100" width="160" height="26" as="geometry">
            <mxRectangle width="160" height="26" as="alternateBounds" />
          </mxGeometry>
        </mxCell>
        <mxCell id="FCFZZAjVjaETikw97Oay-81" value="Sum(Calls Offered)" style="shape=partialRectangle;connectable=0;fillColor=none;top=0;left=0;bottom=0;right=0;align=center;spacingLeft=6;fontStyle=1;overflow=hidden;whiteSpace=wrap;html=1;" parent="FCFZZAjVjaETikw97Oay-78" vertex="1">
          <mxGeometry x="260" width="160" height="26" as="geometry">
            <mxRectangle width="160" height="26" as="alternateBounds" />
          </mxGeometry>
        </mxCell>
        <mxCell id="TylbPrJ1LWOgCM8OSAjV-102" value="Sum(Calls handled)" style="shape=partialRectangle;connectable=0;fillColor=none;top=0;left=0;bottom=0;right=0;align=center;spacingLeft=6;fontStyle=1;overflow=hidden;whiteSpace=wrap;html=1;" parent="FCFZZAjVjaETikw97Oay-78" vertex="1">
          <mxGeometry x="420" width="160" height="26" as="geometry">
            <mxRectangle width="160" height="26" as="alternateBounds" />
          </mxGeometry>
        </mxCell>
        <mxCell id="FCFZZAjVjaETikw97Oay-82" value="" style="shape=tableRow;horizontal=0;startSize=0;swimlaneHead=0;swimlaneBody=0;fillColor=none;collapsible=0;dropTarget=0;points=[[0,0.5],[1,0.5]];portConstraint=eastwest;top=0;left=0;right=0;bottom=1;" parent="FCFZZAjVjaETikw97Oay-77" vertex="1">
          <mxGeometry y="63" width="580" height="30" as="geometry" />
        </mxCell>
        <mxCell id="FCFZZAjVjaETikw97Oay-83" value="2023" style="shape=partialRectangle;connectable=0;fillColor=none;top=0;left=0;bottom=0;right=0;align=center;spacingLeft=6;fontStyle=0;overflow=hidden;whiteSpace=wrap;html=1;" parent="FCFZZAjVjaETikw97Oay-82" vertex="1">
          <mxGeometry width="100" height="30" as="geometry">
            <mxRectangle width="100" height="30" as="alternateBounds" />
          </mxGeometry>
        </mxCell>
        <mxCell id="FCFZZAjVjaETikw97Oay-84" value="&lt;span style=&quot;text-align: -webkit-right;&quot;&gt;213&lt;/span&gt;" style="shape=partialRectangle;connectable=0;fillColor=none;top=0;left=0;bottom=0;right=0;align=center;spacingLeft=6;fontStyle=0;overflow=hidden;whiteSpace=wrap;html=1;" parent="FCFZZAjVjaETikw97Oay-82" vertex="1">
          <mxGeometry x="100" width="160" height="30" as="geometry">
            <mxRectangle width="160" height="30" as="alternateBounds" />
          </mxGeometry>
        </mxCell>
        <mxCell id="FCFZZAjVjaETikw97Oay-85" value="&lt;span style=&quot;text-align: -webkit-right;&quot;&gt;400896&lt;/span&gt;" style="shape=partialRectangle;connectable=0;fillColor=none;top=0;left=0;bottom=0;right=0;align=center;spacingLeft=6;fontStyle=0;overflow=hidden;whiteSpace=wrap;html=1;" parent="FCFZZAjVjaETikw97Oay-82" vertex="1">
          <mxGeometry x="260" width="160" height="30" as="geometry">
            <mxRectangle width="160" height="30" as="alternateBounds" />
          </mxGeometry>
        </mxCell>
        <mxCell id="TylbPrJ1LWOgCM8OSAjV-103" value="377605" style="shape=partialRectangle;connectable=0;fillColor=none;top=0;left=0;bottom=0;right=0;align=center;spacingLeft=6;fontStyle=0;overflow=hidden;whiteSpace=wrap;html=1;" parent="FCFZZAjVjaETikw97Oay-82" vertex="1">
          <mxGeometry x="420" width="160" height="30" as="geometry">
            <mxRectangle width="160" height="30" as="alternateBounds" />
          </mxGeometry>
        </mxCell>
        <mxCell id="FCFZZAjVjaETikw97Oay-90" value="&lt;font style=&quot;font-size: 18px;&quot;&gt;&lt;b&gt;Aggregate&lt;/b&gt;&lt;/font&gt;" style="shape=ellipse;html=1;dashed=0;whiteSpace=wrap;perimeter=ellipsePerimeter;strokeColor=default;align=center;verticalAlign=middle;fontFamily=Helvetica;fontSize=12;fontColor=default;fillColor=default;" parent="dBp1t12f0BtvVspTAIuh-1" vertex="1">
          <mxGeometry x="-40" y="1460" width="90" height="90" as="geometry" />
        </mxCell>
        <mxCell id="FCFZZAjVjaETikw97Oay-93" style="edgeStyle=orthogonalEdgeStyle;rounded=0;orthogonalLoop=1;jettySize=auto;html=1;entryX=0.491;entryY=1.027;entryDx=0;entryDy=0;entryPerimeter=0;" parent="dBp1t12f0BtvVspTAIuh-1" source="FCFZZAjVjaETikw97Oay-90" edge="1">
          <mxGeometry relative="1" as="geometry" />
        </mxCell>
        <mxCell id="TylbPrJ1LWOgCM8OSAjV-17" value="Contact Centre - 2023" style="shape=table;startSize=31;container=1;collapsible=1;childLayout=tableLayout;fixedRows=1;rowLines=0;fontStyle=1;align=center;resizeLast=1;html=1;" parent="dBp1t12f0BtvVspTAIuh-1" vertex="1">
          <mxGeometry x="-461" y="2049" width="760" height="151" as="geometry">
            <mxRectangle x="920" y="-310" width="70" height="30" as="alternateBounds" />
          </mxGeometry>
        </mxCell>
        <mxCell id="TylbPrJ1LWOgCM8OSAjV-18" style="shape=tableRow;horizontal=0;startSize=0;swimlaneHead=0;swimlaneBody=0;fillColor=none;collapsible=0;dropTarget=0;points=[[0,0.5],[1,0.5]];portConstraint=eastwest;top=0;left=0;right=0;bottom=1;" parent="TylbPrJ1LWOgCM8OSAjV-17" vertex="1">
          <mxGeometry y="31" width="760" height="30" as="geometry" />
        </mxCell>
        <mxCell id="TylbPrJ1LWOgCM8OSAjV-19" value="Date" style="shape=partialRectangle;connectable=0;fillColor=none;top=0;left=0;bottom=0;right=0;align=center;spacingLeft=6;fontStyle=1;overflow=hidden;whiteSpace=wrap;html=1;" parent="TylbPrJ1LWOgCM8OSAjV-18" vertex="1">
          <mxGeometry width="100" height="30" as="geometry">
            <mxRectangle width="100" height="30" as="alternateBounds" />
          </mxGeometry>
        </mxCell>
        <mxCell id="TylbPrJ1LWOgCM8OSAjV-20" value="CallsOffered" style="shape=partialRectangle;connectable=0;fillColor=none;top=0;left=0;bottom=0;right=0;align=center;spacingLeft=6;fontStyle=1;overflow=hidden;whiteSpace=wrap;html=1;" parent="TylbPrJ1LWOgCM8OSAjV-18" vertex="1">
          <mxGeometry x="100" width="110" height="30" as="geometry">
            <mxRectangle width="110" height="30" as="alternateBounds" />
          </mxGeometry>
        </mxCell>
        <mxCell id="TylbPrJ1LWOgCM8OSAjV-21" value="CallsHandled" style="shape=partialRectangle;connectable=0;fillColor=none;top=0;left=0;bottom=0;right=0;align=center;spacingLeft=6;fontStyle=1;overflow=hidden;whiteSpace=wrap;html=1;" parent="TylbPrJ1LWOgCM8OSAjV-18" vertex="1">
          <mxGeometry x="210" width="110" height="30" as="geometry">
            <mxRectangle width="110" height="30" as="alternateBounds" />
          </mxGeometry>
        </mxCell>
        <mxCell id="TylbPrJ1LWOgCM8OSAjV-22" value="CallsAbandoned" style="shape=partialRectangle;connectable=0;fillColor=none;top=0;left=0;bottom=0;right=0;align=center;spacingLeft=6;fontStyle=1;overflow=hidden;whiteSpace=wrap;html=1;" parent="TylbPrJ1LWOgCM8OSAjV-18" vertex="1">
          <mxGeometry x="320" width="110" height="30" as="geometry">
            <mxRectangle width="110" height="30" as="alternateBounds" />
          </mxGeometry>
        </mxCell>
        <mxCell id="TylbPrJ1LWOgCM8OSAjV-23" value="AverageSpeedofAnswer" style="shape=partialRectangle;connectable=0;fillColor=none;top=0;left=0;bottom=0;right=0;align=center;spacingLeft=6;fontStyle=1;overflow=hidden;whiteSpace=wrap;html=1;" parent="TylbPrJ1LWOgCM8OSAjV-18" vertex="1">
          <mxGeometry x="430" width="110" height="30" as="geometry">
            <mxRectangle width="110" height="30" as="alternateBounds" />
          </mxGeometry>
        </mxCell>
        <mxCell id="TylbPrJ1LWOgCM8OSAjV-24" value="ServiceLevel" style="shape=partialRectangle;connectable=0;fillColor=none;top=0;left=0;bottom=0;right=0;align=center;spacingLeft=6;fontStyle=1;overflow=hidden;whiteSpace=wrap;html=1;" parent="TylbPrJ1LWOgCM8OSAjV-18" vertex="1">
          <mxGeometry x="540" width="110" height="30" as="geometry">
            <mxRectangle width="110" height="30" as="alternateBounds" />
          </mxGeometry>
        </mxCell>
        <mxCell id="TylbPrJ1LWOgCM8OSAjV-25" value="BI_ID" style="shape=partialRectangle;connectable=0;fillColor=none;top=0;left=0;bottom=0;right=0;align=center;spacingLeft=6;fontStyle=1;overflow=hidden;whiteSpace=wrap;html=1;" parent="TylbPrJ1LWOgCM8OSAjV-18" vertex="1">
          <mxGeometry x="650" width="110" height="30" as="geometry">
            <mxRectangle width="110" height="30" as="alternateBounds" />
          </mxGeometry>
        </mxCell>
        <mxCell id="TylbPrJ1LWOgCM8OSAjV-26" value="" style="shape=tableRow;horizontal=0;startSize=0;swimlaneHead=0;swimlaneBody=0;fillColor=none;collapsible=0;dropTarget=0;points=[[0,0.5],[1,0.5]];portConstraint=eastwest;top=0;left=0;right=0;bottom=1;" parent="TylbPrJ1LWOgCM8OSAjV-17" vertex="1">
          <mxGeometry y="61" width="760" height="30" as="geometry" />
        </mxCell>
        <mxCell id="TylbPrJ1LWOgCM8OSAjV-27" value="2023-12-31" style="shape=partialRectangle;connectable=0;fillColor=none;top=0;left=0;bottom=0;right=0;align=center;spacingLeft=6;fontStyle=0;overflow=hidden;whiteSpace=wrap;html=1;" parent="TylbPrJ1LWOgCM8OSAjV-26" vertex="1">
          <mxGeometry width="100" height="30" as="geometry">
            <mxRectangle width="100" height="30" as="alternateBounds" />
          </mxGeometry>
        </mxCell>
        <mxCell id="TylbPrJ1LWOgCM8OSAjV-28" value="384" style="shape=partialRectangle;connectable=0;fillColor=none;top=0;left=0;bottom=0;right=0;align=center;spacingLeft=6;fontStyle=0;overflow=hidden;whiteSpace=wrap;html=1;" parent="TylbPrJ1LWOgCM8OSAjV-26" vertex="1">
          <mxGeometry x="100" width="110" height="30" as="geometry">
            <mxRectangle width="110" height="30" as="alternateBounds" />
          </mxGeometry>
        </mxCell>
        <mxCell id="TylbPrJ1LWOgCM8OSAjV-29" value="&lt;div style=&quot;text-align: left;&quot;&gt;&lt;span style=&quot;background-color: initial;&quot;&gt;343&lt;/span&gt;&lt;/div&gt;" style="shape=partialRectangle;connectable=0;fillColor=none;top=0;left=0;bottom=0;right=0;align=center;spacingLeft=6;fontStyle=0;overflow=hidden;whiteSpace=wrap;html=1;" parent="TylbPrJ1LWOgCM8OSAjV-26" vertex="1">
          <mxGeometry x="210" width="110" height="30" as="geometry">
            <mxRectangle width="110" height="30" as="alternateBounds" />
          </mxGeometry>
        </mxCell>
        <mxCell id="TylbPrJ1LWOgCM8OSAjV-30" value="&lt;div style=&quot;text-align: -webkit-right;&quot;&gt;33&lt;br&gt;&lt;/div&gt;" style="shape=partialRectangle;connectable=0;fillColor=none;top=0;left=0;bottom=0;right=0;align=center;spacingLeft=6;fontStyle=0;overflow=hidden;whiteSpace=wrap;html=1;" parent="TylbPrJ1LWOgCM8OSAjV-26" vertex="1">
          <mxGeometry x="320" width="110" height="30" as="geometry">
            <mxRectangle width="110" height="30" as="alternateBounds" />
          </mxGeometry>
        </mxCell>
        <mxCell id="TylbPrJ1LWOgCM8OSAjV-31" value="37.67" style="shape=partialRectangle;connectable=0;fillColor=none;top=0;left=0;bottom=0;right=0;align=center;spacingLeft=6;fontStyle=0;overflow=hidden;whiteSpace=wrap;html=1;" parent="TylbPrJ1LWOgCM8OSAjV-26" vertex="1">
          <mxGeometry x="430" width="110" height="30" as="geometry">
            <mxRectangle width="110" height="30" as="alternateBounds" />
          </mxGeometry>
        </mxCell>
        <mxCell id="TylbPrJ1LWOgCM8OSAjV-32" value="&lt;div style=&quot;text-align: -webkit-right;&quot;&gt;&lt;span style=&quot;background-color: initial;&quot;&gt;0.74&lt;/span&gt;&lt;/div&gt;" style="shape=partialRectangle;connectable=0;fillColor=none;top=0;left=0;bottom=0;right=0;align=center;spacingLeft=6;fontStyle=0;overflow=hidden;whiteSpace=wrap;html=1;" parent="TylbPrJ1LWOgCM8OSAjV-26" vertex="1">
          <mxGeometry x="540" width="110" height="30" as="geometry">
            <mxRectangle width="110" height="30" as="alternateBounds" />
          </mxGeometry>
        </mxCell>
        <mxCell id="TylbPrJ1LWOgCM8OSAjV-33" value="&lt;span style=&quot;text-align: left;&quot;&gt;214&lt;/span&gt;" style="shape=partialRectangle;connectable=0;fillColor=none;top=0;left=0;bottom=0;right=0;align=center;spacingLeft=6;fontStyle=0;overflow=hidden;whiteSpace=wrap;html=1;" parent="TylbPrJ1LWOgCM8OSAjV-26" vertex="1">
          <mxGeometry x="650" width="110" height="30" as="geometry">
            <mxRectangle width="110" height="30" as="alternateBounds" />
          </mxGeometry>
        </mxCell>
        <mxCell id="TylbPrJ1LWOgCM8OSAjV-34" style="shape=tableRow;horizontal=0;startSize=0;swimlaneHead=0;swimlaneBody=0;fillColor=none;collapsible=0;dropTarget=0;points=[[0,0.5],[1,0.5]];portConstraint=eastwest;top=0;left=0;right=0;bottom=1;" parent="TylbPrJ1LWOgCM8OSAjV-17" vertex="1">
          <mxGeometry y="91" width="760" height="30" as="geometry" />
        </mxCell>
        <mxCell id="TylbPrJ1LWOgCM8OSAjV-35" value="2023-12-30" style="shape=partialRectangle;connectable=0;fillColor=none;top=0;left=0;bottom=0;right=0;align=center;spacingLeft=6;fontStyle=0;overflow=hidden;whiteSpace=wrap;html=1;" parent="TylbPrJ1LWOgCM8OSAjV-34" vertex="1">
          <mxGeometry width="100" height="30" as="geometry">
            <mxRectangle width="100" height="30" as="alternateBounds" />
          </mxGeometry>
        </mxCell>
        <mxCell id="TylbPrJ1LWOgCM8OSAjV-36" value="436" style="shape=partialRectangle;connectable=0;fillColor=none;top=0;left=0;bottom=0;right=0;align=center;spacingLeft=6;fontStyle=0;overflow=hidden;whiteSpace=wrap;html=1;" parent="TylbPrJ1LWOgCM8OSAjV-34" vertex="1">
          <mxGeometry x="100" width="110" height="30" as="geometry">
            <mxRectangle width="110" height="30" as="alternateBounds" />
          </mxGeometry>
        </mxCell>
        <mxCell id="TylbPrJ1LWOgCM8OSAjV-37" value="&lt;span style=&quot;text-align: left;&quot;&gt;429&lt;/span&gt;" style="shape=partialRectangle;connectable=0;fillColor=none;top=0;left=0;bottom=0;right=0;align=center;spacingLeft=6;fontStyle=0;overflow=hidden;whiteSpace=wrap;html=1;" parent="TylbPrJ1LWOgCM8OSAjV-34" vertex="1">
          <mxGeometry x="210" width="110" height="30" as="geometry">
            <mxRectangle width="110" height="30" as="alternateBounds" />
          </mxGeometry>
        </mxCell>
        <mxCell id="TylbPrJ1LWOgCM8OSAjV-38" value="&lt;span style=&quot;color: rgb(0, 0, 0); font-family: Helvetica; font-size: 12px; font-style: normal; font-variant-ligatures: normal; font-variant-caps: normal; font-weight: 400; letter-spacing: normal; orphans: 2; text-align: -webkit-right; text-indent: 0px; text-transform: none; widows: 2; word-spacing: 0px; -webkit-text-stroke-width: 0px; white-space: normal; background-color: rgb(251, 251, 251); text-decoration-thickness: initial; text-decoration-style: initial; text-decoration-color: initial; display: inline !important; float: none;&quot;&gt;6&lt;/span&gt;" style="shape=partialRectangle;connectable=0;fillColor=none;top=0;left=0;bottom=0;right=0;align=center;spacingLeft=6;fontStyle=0;overflow=hidden;whiteSpace=wrap;html=1;" parent="TylbPrJ1LWOgCM8OSAjV-34" vertex="1">
          <mxGeometry x="320" width="110" height="30" as="geometry">
            <mxRectangle width="110" height="30" as="alternateBounds" />
          </mxGeometry>
        </mxCell>
        <mxCell id="TylbPrJ1LWOgCM8OSAjV-39" value="8.57" style="shape=partialRectangle;connectable=0;fillColor=none;top=0;left=0;bottom=0;right=0;align=center;spacingLeft=6;fontStyle=0;overflow=hidden;whiteSpace=wrap;html=1;" parent="TylbPrJ1LWOgCM8OSAjV-34" vertex="1">
          <mxGeometry x="430" width="110" height="30" as="geometry">
            <mxRectangle width="110" height="30" as="alternateBounds" />
          </mxGeometry>
        </mxCell>
        <mxCell id="TylbPrJ1LWOgCM8OSAjV-40" value="&lt;div style=&quot;text-align: -webkit-right;&quot;&gt;&lt;span style=&quot;background-color: initial;&quot;&gt;0.94&lt;/span&gt;&lt;/div&gt;" style="shape=partialRectangle;connectable=0;fillColor=none;top=0;left=0;bottom=0;right=0;align=center;spacingLeft=6;fontStyle=0;overflow=hidden;whiteSpace=wrap;html=1;" parent="TylbPrJ1LWOgCM8OSAjV-34" vertex="1">
          <mxGeometry x="540" width="110" height="30" as="geometry">
            <mxRectangle width="110" height="30" as="alternateBounds" />
          </mxGeometry>
        </mxCell>
        <mxCell id="TylbPrJ1LWOgCM8OSAjV-41" value="&lt;span style=&quot;text-align: left;&quot;&gt;215&lt;/span&gt;" style="shape=partialRectangle;connectable=0;fillColor=none;top=0;left=0;bottom=0;right=0;align=center;spacingLeft=6;fontStyle=0;overflow=hidden;whiteSpace=wrap;html=1;" parent="TylbPrJ1LWOgCM8OSAjV-34" vertex="1">
          <mxGeometry x="650" width="110" height="30" as="geometry">
            <mxRectangle width="110" height="30" as="alternateBounds" />
          </mxGeometry>
        </mxCell>
        <mxCell id="TylbPrJ1LWOgCM8OSAjV-42" value="" style="shape=tableRow;horizontal=0;startSize=0;swimlaneHead=0;swimlaneBody=0;fillColor=none;collapsible=0;dropTarget=0;points=[[0,0.5],[1,0.5]];portConstraint=eastwest;top=0;left=0;right=0;bottom=0;" parent="TylbPrJ1LWOgCM8OSAjV-17" vertex="1">
          <mxGeometry y="121" width="760" height="30" as="geometry" />
        </mxCell>
        <mxCell id="TylbPrJ1LWOgCM8OSAjV-43" value="2023-12-29" style="shape=partialRectangle;connectable=0;fillColor=none;top=0;left=0;bottom=0;right=0;align=center;spacingLeft=6;overflow=hidden;whiteSpace=wrap;html=1;fontStyle=0" parent="TylbPrJ1LWOgCM8OSAjV-42" vertex="1">
          <mxGeometry width="100" height="30" as="geometry">
            <mxRectangle width="100" height="30" as="alternateBounds" />
          </mxGeometry>
        </mxCell>
        <mxCell id="TylbPrJ1LWOgCM8OSAjV-44" value="933" style="shape=partialRectangle;connectable=0;fillColor=none;top=0;left=0;bottom=0;right=0;align=center;spacingLeft=6;overflow=hidden;whiteSpace=wrap;html=1;" parent="TylbPrJ1LWOgCM8OSAjV-42" vertex="1">
          <mxGeometry x="100" width="110" height="30" as="geometry">
            <mxRectangle width="110" height="30" as="alternateBounds" />
          </mxGeometry>
        </mxCell>
        <mxCell id="TylbPrJ1LWOgCM8OSAjV-45" value="&lt;span style=&quot;text-align: left;&quot;&gt;908&lt;/span&gt;" style="shape=partialRectangle;connectable=0;fillColor=none;top=0;left=0;bottom=0;right=0;align=center;spacingLeft=6;overflow=hidden;whiteSpace=wrap;html=1;" parent="TylbPrJ1LWOgCM8OSAjV-42" vertex="1">
          <mxGeometry x="210" width="110" height="30" as="geometry">
            <mxRectangle width="110" height="30" as="alternateBounds" />
          </mxGeometry>
        </mxCell>
        <mxCell id="TylbPrJ1LWOgCM8OSAjV-46" value="&lt;span style=&quot;color: rgb(0, 0, 0); font-family: Helvetica; font-size: 12px; font-style: normal; font-variant-ligatures: normal; font-variant-caps: normal; font-weight: 400; letter-spacing: normal; orphans: 2; text-align: -webkit-right; text-indent: 0px; text-transform: none; widows: 2; word-spacing: 0px; -webkit-text-stroke-width: 0px; white-space: normal; background-color: rgb(251, 251, 251); text-decoration-thickness: initial; text-decoration-style: initial; text-decoration-color: initial; display: inline !important; float: none;&quot;&gt;17&lt;/span&gt;" style="shape=partialRectangle;connectable=0;fillColor=none;top=0;left=0;bottom=0;right=0;align=center;spacingLeft=6;overflow=hidden;whiteSpace=wrap;html=1;" parent="TylbPrJ1LWOgCM8OSAjV-42" vertex="1">
          <mxGeometry x="320" width="110" height="30" as="geometry">
            <mxRectangle width="110" height="30" as="alternateBounds" />
          </mxGeometry>
        </mxCell>
        <mxCell id="TylbPrJ1LWOgCM8OSAjV-47" value="24.28" style="shape=partialRectangle;connectable=0;fillColor=none;top=0;left=0;bottom=0;right=0;align=center;spacingLeft=6;overflow=hidden;whiteSpace=wrap;html=1;" parent="TylbPrJ1LWOgCM8OSAjV-42" vertex="1">
          <mxGeometry x="430" width="110" height="30" as="geometry">
            <mxRectangle width="110" height="30" as="alternateBounds" />
          </mxGeometry>
        </mxCell>
        <mxCell id="TylbPrJ1LWOgCM8OSAjV-48" value="&lt;span style=&quot;color: rgb(0, 0, 0); font-family: Helvetica; font-size: 12px; font-style: normal; font-variant-ligatures: normal; font-variant-caps: normal; font-weight: 400; letter-spacing: normal; orphans: 2; text-align: -webkit-right; text-indent: 0px; text-transform: none; widows: 2; word-spacing: 0px; -webkit-text-stroke-width: 0px; white-space: normal; background-color: rgb(251, 251, 251); text-decoration-thickness: initial; text-decoration-style: initial; text-decoration-color: initial; display: inline !important; float: none;&quot;&gt;0.85&lt;/span&gt;" style="shape=partialRectangle;connectable=0;fillColor=none;top=0;left=0;bottom=0;right=0;align=center;spacingLeft=6;overflow=hidden;whiteSpace=wrap;html=1;" parent="TylbPrJ1LWOgCM8OSAjV-42" vertex="1">
          <mxGeometry x="540" width="110" height="30" as="geometry">
            <mxRectangle width="110" height="30" as="alternateBounds" />
          </mxGeometry>
        </mxCell>
        <mxCell id="TylbPrJ1LWOgCM8OSAjV-49" value="&lt;span style=&quot;text-align: left;&quot;&gt;216&lt;/span&gt;" style="shape=partialRectangle;connectable=0;fillColor=none;top=0;left=0;bottom=0;right=0;align=center;spacingLeft=6;overflow=hidden;whiteSpace=wrap;html=1;" parent="TylbPrJ1LWOgCM8OSAjV-42" vertex="1">
          <mxGeometry x="650" width="110" height="30" as="geometry">
            <mxRectangle width="110" height="30" as="alternateBounds" />
          </mxGeometry>
        </mxCell>
        <mxCell id="TylbPrJ1LWOgCM8OSAjV-50" value="Contact Centre - 2024" style="shape=table;startSize=31;container=1;collapsible=1;childLayout=tableLayout;fixedRows=1;rowLines=0;fontStyle=1;align=center;resizeLast=1;html=1;" parent="dBp1t12f0BtvVspTAIuh-1" vertex="1">
          <mxGeometry x="337" y="2050" width="760" height="151" as="geometry">
            <mxRectangle x="920" y="-310" width="70" height="30" as="alternateBounds" />
          </mxGeometry>
        </mxCell>
        <mxCell id="TylbPrJ1LWOgCM8OSAjV-51" style="shape=tableRow;horizontal=0;startSize=0;swimlaneHead=0;swimlaneBody=0;fillColor=none;collapsible=0;dropTarget=0;points=[[0,0.5],[1,0.5]];portConstraint=eastwest;top=0;left=0;right=0;bottom=1;" parent="TylbPrJ1LWOgCM8OSAjV-50" vertex="1">
          <mxGeometry y="31" width="760" height="30" as="geometry" />
        </mxCell>
        <mxCell id="TylbPrJ1LWOgCM8OSAjV-52" value="Date" style="shape=partialRectangle;connectable=0;fillColor=none;top=0;left=0;bottom=0;right=0;align=center;spacingLeft=6;fontStyle=1;overflow=hidden;whiteSpace=wrap;html=1;" parent="TylbPrJ1LWOgCM8OSAjV-51" vertex="1">
          <mxGeometry width="100" height="30" as="geometry">
            <mxRectangle width="100" height="30" as="alternateBounds" />
          </mxGeometry>
        </mxCell>
        <mxCell id="TylbPrJ1LWOgCM8OSAjV-53" value="CallsOffered" style="shape=partialRectangle;connectable=0;fillColor=none;top=0;left=0;bottom=0;right=0;align=center;spacingLeft=6;fontStyle=1;overflow=hidden;whiteSpace=wrap;html=1;" parent="TylbPrJ1LWOgCM8OSAjV-51" vertex="1">
          <mxGeometry x="100" width="110" height="30" as="geometry">
            <mxRectangle width="110" height="30" as="alternateBounds" />
          </mxGeometry>
        </mxCell>
        <mxCell id="TylbPrJ1LWOgCM8OSAjV-54" value="CallsHandled" style="shape=partialRectangle;connectable=0;fillColor=none;top=0;left=0;bottom=0;right=0;align=center;spacingLeft=6;fontStyle=1;overflow=hidden;whiteSpace=wrap;html=1;" parent="TylbPrJ1LWOgCM8OSAjV-51" vertex="1">
          <mxGeometry x="210" width="110" height="30" as="geometry">
            <mxRectangle width="110" height="30" as="alternateBounds" />
          </mxGeometry>
        </mxCell>
        <mxCell id="TylbPrJ1LWOgCM8OSAjV-55" value="CallsAbandoned" style="shape=partialRectangle;connectable=0;fillColor=none;top=0;left=0;bottom=0;right=0;align=center;spacingLeft=6;fontStyle=1;overflow=hidden;whiteSpace=wrap;html=1;" parent="TylbPrJ1LWOgCM8OSAjV-51" vertex="1">
          <mxGeometry x="320" width="110" height="30" as="geometry">
            <mxRectangle width="110" height="30" as="alternateBounds" />
          </mxGeometry>
        </mxCell>
        <mxCell id="TylbPrJ1LWOgCM8OSAjV-56" value="AverageSpeedofAnswer" style="shape=partialRectangle;connectable=0;fillColor=none;top=0;left=0;bottom=0;right=0;align=center;spacingLeft=6;fontStyle=1;overflow=hidden;whiteSpace=wrap;html=1;" parent="TylbPrJ1LWOgCM8OSAjV-51" vertex="1">
          <mxGeometry x="430" width="110" height="30" as="geometry">
            <mxRectangle width="110" height="30" as="alternateBounds" />
          </mxGeometry>
        </mxCell>
        <mxCell id="TylbPrJ1LWOgCM8OSAjV-57" value="ServiceLevel" style="shape=partialRectangle;connectable=0;fillColor=none;top=0;left=0;bottom=0;right=0;align=center;spacingLeft=6;fontStyle=1;overflow=hidden;whiteSpace=wrap;html=1;" parent="TylbPrJ1LWOgCM8OSAjV-51" vertex="1">
          <mxGeometry x="540" width="110" height="30" as="geometry">
            <mxRectangle width="110" height="30" as="alternateBounds" />
          </mxGeometry>
        </mxCell>
        <mxCell id="TylbPrJ1LWOgCM8OSAjV-58" value="BI_ID" style="shape=partialRectangle;connectable=0;fillColor=none;top=0;left=0;bottom=0;right=0;align=center;spacingLeft=6;fontStyle=1;overflow=hidden;whiteSpace=wrap;html=1;" parent="TylbPrJ1LWOgCM8OSAjV-51" vertex="1">
          <mxGeometry x="650" width="110" height="30" as="geometry">
            <mxRectangle width="110" height="30" as="alternateBounds" />
          </mxGeometry>
        </mxCell>
        <mxCell id="TylbPrJ1LWOgCM8OSAjV-59" value="" style="shape=tableRow;horizontal=0;startSize=0;swimlaneHead=0;swimlaneBody=0;fillColor=none;collapsible=0;dropTarget=0;points=[[0,0.5],[1,0.5]];portConstraint=eastwest;top=0;left=0;right=0;bottom=1;" parent="TylbPrJ1LWOgCM8OSAjV-50" vertex="1">
          <mxGeometry y="61" width="760" height="30" as="geometry" />
        </mxCell>
        <mxCell id="TylbPrJ1LWOgCM8OSAjV-60" value="2024-07-31" style="shape=partialRectangle;connectable=0;fillColor=none;top=0;left=0;bottom=0;right=0;align=center;spacingLeft=6;fontStyle=0;overflow=hidden;whiteSpace=wrap;html=1;" parent="TylbPrJ1LWOgCM8OSAjV-59" vertex="1">
          <mxGeometry width="100" height="30" as="geometry">
            <mxRectangle width="100" height="30" as="alternateBounds" />
          </mxGeometry>
        </mxCell>
        <mxCell id="TylbPrJ1LWOgCM8OSAjV-61" value="1252" style="shape=partialRectangle;connectable=0;fillColor=none;top=0;left=0;bottom=0;right=0;align=center;spacingLeft=6;fontStyle=0;overflow=hidden;whiteSpace=wrap;html=1;" parent="TylbPrJ1LWOgCM8OSAjV-59" vertex="1">
          <mxGeometry x="100" width="110" height="30" as="geometry">
            <mxRectangle width="110" height="30" as="alternateBounds" />
          </mxGeometry>
        </mxCell>
        <mxCell id="TylbPrJ1LWOgCM8OSAjV-62" value="&lt;div style=&quot;text-align: left;&quot;&gt;&lt;span style=&quot;background-color: initial;&quot;&gt;1181&lt;/span&gt;&lt;/div&gt;" style="shape=partialRectangle;connectable=0;fillColor=none;top=0;left=0;bottom=0;right=0;align=center;spacingLeft=6;fontStyle=0;overflow=hidden;whiteSpace=wrap;html=1;" parent="TylbPrJ1LWOgCM8OSAjV-59" vertex="1">
          <mxGeometry x="210" width="110" height="30" as="geometry">
            <mxRectangle width="110" height="30" as="alternateBounds" />
          </mxGeometry>
        </mxCell>
        <mxCell id="TylbPrJ1LWOgCM8OSAjV-63" value="&lt;div style=&quot;text-align: -webkit-right;&quot;&gt;57&lt;br&gt;&lt;/div&gt;" style="shape=partialRectangle;connectable=0;fillColor=none;top=0;left=0;bottom=0;right=0;align=center;spacingLeft=6;fontStyle=0;overflow=hidden;whiteSpace=wrap;html=1;" parent="TylbPrJ1LWOgCM8OSAjV-59" vertex="1">
          <mxGeometry x="320" width="110" height="30" as="geometry">
            <mxRectangle width="110" height="30" as="alternateBounds" />
          </mxGeometry>
        </mxCell>
        <mxCell id="TylbPrJ1LWOgCM8OSAjV-64" value="45.67" style="shape=partialRectangle;connectable=0;fillColor=none;top=0;left=0;bottom=0;right=0;align=center;spacingLeft=6;fontStyle=0;overflow=hidden;whiteSpace=wrap;html=1;" parent="TylbPrJ1LWOgCM8OSAjV-59" vertex="1">
          <mxGeometry x="430" width="110" height="30" as="geometry">
            <mxRectangle width="110" height="30" as="alternateBounds" />
          </mxGeometry>
        </mxCell>
        <mxCell id="TylbPrJ1LWOgCM8OSAjV-65" value="&lt;div style=&quot;text-align: -webkit-right;&quot;&gt;&lt;span style=&quot;background-color: initial;&quot;&gt;0.74&lt;/span&gt;&lt;/div&gt;" style="shape=partialRectangle;connectable=0;fillColor=none;top=0;left=0;bottom=0;right=0;align=center;spacingLeft=6;fontStyle=0;overflow=hidden;whiteSpace=wrap;html=1;" parent="TylbPrJ1LWOgCM8OSAjV-59" vertex="1">
          <mxGeometry x="540" width="110" height="30" as="geometry">
            <mxRectangle width="110" height="30" as="alternateBounds" />
          </mxGeometry>
        </mxCell>
        <mxCell id="TylbPrJ1LWOgCM8OSAjV-66" value="&lt;span style=&quot;text-align: left;&quot;&gt;1&lt;/span&gt;" style="shape=partialRectangle;connectable=0;fillColor=none;top=0;left=0;bottom=0;right=0;align=center;spacingLeft=6;fontStyle=0;overflow=hidden;whiteSpace=wrap;html=1;" parent="TylbPrJ1LWOgCM8OSAjV-59" vertex="1">
          <mxGeometry x="650" width="110" height="30" as="geometry">
            <mxRectangle width="110" height="30" as="alternateBounds" />
          </mxGeometry>
        </mxCell>
        <mxCell id="TylbPrJ1LWOgCM8OSAjV-67" style="shape=tableRow;horizontal=0;startSize=0;swimlaneHead=0;swimlaneBody=0;fillColor=none;collapsible=0;dropTarget=0;points=[[0,0.5],[1,0.5]];portConstraint=eastwest;top=0;left=0;right=0;bottom=1;" parent="TylbPrJ1LWOgCM8OSAjV-50" vertex="1">
          <mxGeometry y="91" width="760" height="30" as="geometry" />
        </mxCell>
        <mxCell id="TylbPrJ1LWOgCM8OSAjV-68" value="2024-07-30" style="shape=partialRectangle;connectable=0;fillColor=none;top=0;left=0;bottom=0;right=0;align=center;spacingLeft=6;fontStyle=0;overflow=hidden;whiteSpace=wrap;html=1;" parent="TylbPrJ1LWOgCM8OSAjV-67" vertex="1">
          <mxGeometry width="100" height="30" as="geometry">
            <mxRectangle width="100" height="30" as="alternateBounds" />
          </mxGeometry>
        </mxCell>
        <mxCell id="TylbPrJ1LWOgCM8OSAjV-69" value="1380" style="shape=partialRectangle;connectable=0;fillColor=none;top=0;left=0;bottom=0;right=0;align=center;spacingLeft=6;fontStyle=0;overflow=hidden;whiteSpace=wrap;html=1;" parent="TylbPrJ1LWOgCM8OSAjV-67" vertex="1">
          <mxGeometry x="100" width="110" height="30" as="geometry">
            <mxRectangle width="110" height="30" as="alternateBounds" />
          </mxGeometry>
        </mxCell>
        <mxCell id="TylbPrJ1LWOgCM8OSAjV-70" value="&lt;span style=&quot;text-align: left;&quot;&gt;1288&lt;/span&gt;" style="shape=partialRectangle;connectable=0;fillColor=none;top=0;left=0;bottom=0;right=0;align=center;spacingLeft=6;fontStyle=0;overflow=hidden;whiteSpace=wrap;html=1;" parent="TylbPrJ1LWOgCM8OSAjV-67" vertex="1">
          <mxGeometry x="210" width="110" height="30" as="geometry">
            <mxRectangle width="110" height="30" as="alternateBounds" />
          </mxGeometry>
        </mxCell>
        <mxCell id="TylbPrJ1LWOgCM8OSAjV-71" value="&lt;span style=&quot;color: rgb(0, 0, 0); font-family: Helvetica; font-size: 12px; font-style: normal; font-variant-ligatures: normal; font-variant-caps: normal; font-weight: 400; letter-spacing: normal; orphans: 2; text-align: -webkit-right; text-indent: 0px; text-transform: none; widows: 2; word-spacing: 0px; -webkit-text-stroke-width: 0px; white-space: normal; background-color: rgb(251, 251, 251); text-decoration-thickness: initial; text-decoration-style: initial; text-decoration-color: initial; display: inline !important; float: none;&quot;&gt;78&lt;/span&gt;" style="shape=partialRectangle;connectable=0;fillColor=none;top=0;left=0;bottom=0;right=0;align=center;spacingLeft=6;fontStyle=0;overflow=hidden;whiteSpace=wrap;html=1;" parent="TylbPrJ1LWOgCM8OSAjV-67" vertex="1">
          <mxGeometry x="320" width="110" height="30" as="geometry">
            <mxRectangle width="110" height="30" as="alternateBounds" />
          </mxGeometry>
        </mxCell>
        <mxCell id="TylbPrJ1LWOgCM8OSAjV-72" value="57.57" style="shape=partialRectangle;connectable=0;fillColor=none;top=0;left=0;bottom=0;right=0;align=center;spacingLeft=6;fontStyle=0;overflow=hidden;whiteSpace=wrap;html=1;" parent="TylbPrJ1LWOgCM8OSAjV-67" vertex="1">
          <mxGeometry x="430" width="110" height="30" as="geometry">
            <mxRectangle width="110" height="30" as="alternateBounds" />
          </mxGeometry>
        </mxCell>
        <mxCell id="TylbPrJ1LWOgCM8OSAjV-73" value="&lt;div style=&quot;text-align: -webkit-right;&quot;&gt;&lt;span style=&quot;background-color: initial;&quot;&gt;0.94&lt;/span&gt;&lt;/div&gt;" style="shape=partialRectangle;connectable=0;fillColor=none;top=0;left=0;bottom=0;right=0;align=center;spacingLeft=6;fontStyle=0;overflow=hidden;whiteSpace=wrap;html=1;" parent="TylbPrJ1LWOgCM8OSAjV-67" vertex="1">
          <mxGeometry x="540" width="110" height="30" as="geometry">
            <mxRectangle width="110" height="30" as="alternateBounds" />
          </mxGeometry>
        </mxCell>
        <mxCell id="TylbPrJ1LWOgCM8OSAjV-74" value="&lt;span style=&quot;text-align: left;&quot;&gt;2&lt;/span&gt;" style="shape=partialRectangle;connectable=0;fillColor=none;top=0;left=0;bottom=0;right=0;align=center;spacingLeft=6;fontStyle=0;overflow=hidden;whiteSpace=wrap;html=1;" parent="TylbPrJ1LWOgCM8OSAjV-67" vertex="1">
          <mxGeometry x="650" width="110" height="30" as="geometry">
            <mxRectangle width="110" height="30" as="alternateBounds" />
          </mxGeometry>
        </mxCell>
        <mxCell id="TylbPrJ1LWOgCM8OSAjV-75" value="" style="shape=tableRow;horizontal=0;startSize=0;swimlaneHead=0;swimlaneBody=0;fillColor=none;collapsible=0;dropTarget=0;points=[[0,0.5],[1,0.5]];portConstraint=eastwest;top=0;left=0;right=0;bottom=0;" parent="TylbPrJ1LWOgCM8OSAjV-50" vertex="1">
          <mxGeometry y="121" width="760" height="30" as="geometry" />
        </mxCell>
        <mxCell id="TylbPrJ1LWOgCM8OSAjV-76" value="2024-07-29" style="shape=partialRectangle;connectable=0;fillColor=none;top=0;left=0;bottom=0;right=0;align=center;spacingLeft=6;overflow=hidden;whiteSpace=wrap;html=1;fontStyle=0" parent="TylbPrJ1LWOgCM8OSAjV-75" vertex="1">
          <mxGeometry width="100" height="30" as="geometry">
            <mxRectangle width="100" height="30" as="alternateBounds" />
          </mxGeometry>
        </mxCell>
        <mxCell id="TylbPrJ1LWOgCM8OSAjV-77" value="1563" style="shape=partialRectangle;connectable=0;fillColor=none;top=0;left=0;bottom=0;right=0;align=center;spacingLeft=6;overflow=hidden;whiteSpace=wrap;html=1;" parent="TylbPrJ1LWOgCM8OSAjV-75" vertex="1">
          <mxGeometry x="100" width="110" height="30" as="geometry">
            <mxRectangle width="110" height="30" as="alternateBounds" />
          </mxGeometry>
        </mxCell>
        <mxCell id="TylbPrJ1LWOgCM8OSAjV-78" value="&lt;span style=&quot;text-align: left;&quot;&gt;1426&lt;/span&gt;" style="shape=partialRectangle;connectable=0;fillColor=none;top=0;left=0;bottom=0;right=0;align=center;spacingLeft=6;overflow=hidden;whiteSpace=wrap;html=1;" parent="TylbPrJ1LWOgCM8OSAjV-75" vertex="1">
          <mxGeometry x="210" width="110" height="30" as="geometry">
            <mxRectangle width="110" height="30" as="alternateBounds" />
          </mxGeometry>
        </mxCell>
        <mxCell id="TylbPrJ1LWOgCM8OSAjV-79" value="&lt;span style=&quot;color: rgb(0, 0, 0); font-family: Helvetica; font-size: 12px; font-style: normal; font-variant-ligatures: normal; font-variant-caps: normal; font-weight: 400; letter-spacing: normal; orphans: 2; text-align: -webkit-right; text-indent: 0px; text-transform: none; widows: 2; word-spacing: 0px; -webkit-text-stroke-width: 0px; white-space: normal; background-color: rgb(251, 251, 251); text-decoration-thickness: initial; text-decoration-style: initial; text-decoration-color: initial; display: inline !important; float: none;&quot;&gt;116&lt;/span&gt;" style="shape=partialRectangle;connectable=0;fillColor=none;top=0;left=0;bottom=0;right=0;align=center;spacingLeft=6;overflow=hidden;whiteSpace=wrap;html=1;" parent="TylbPrJ1LWOgCM8OSAjV-75" vertex="1">
          <mxGeometry x="320" width="110" height="30" as="geometry">
            <mxRectangle width="110" height="30" as="alternateBounds" />
          </mxGeometry>
        </mxCell>
        <mxCell id="TylbPrJ1LWOgCM8OSAjV-80" value="73.28" style="shape=partialRectangle;connectable=0;fillColor=none;top=0;left=0;bottom=0;right=0;align=center;spacingLeft=6;overflow=hidden;whiteSpace=wrap;html=1;" parent="TylbPrJ1LWOgCM8OSAjV-75" vertex="1">
          <mxGeometry x="430" width="110" height="30" as="geometry">
            <mxRectangle width="110" height="30" as="alternateBounds" />
          </mxGeometry>
        </mxCell>
        <mxCell id="TylbPrJ1LWOgCM8OSAjV-81" value="&lt;span style=&quot;color: rgb(0, 0, 0); font-family: Helvetica; font-size: 12px; font-style: normal; font-variant-ligatures: normal; font-variant-caps: normal; font-weight: 400; letter-spacing: normal; orphans: 2; text-align: -webkit-right; text-indent: 0px; text-transform: none; widows: 2; word-spacing: 0px; -webkit-text-stroke-width: 0px; white-space: normal; background-color: rgb(251, 251, 251); text-decoration-thickness: initial; text-decoration-style: initial; text-decoration-color: initial; display: inline !important; float: none;&quot;&gt;0.85&lt;/span&gt;" style="shape=partialRectangle;connectable=0;fillColor=none;top=0;left=0;bottom=0;right=0;align=center;spacingLeft=6;overflow=hidden;whiteSpace=wrap;html=1;" parent="TylbPrJ1LWOgCM8OSAjV-75" vertex="1">
          <mxGeometry x="540" width="110" height="30" as="geometry">
            <mxRectangle width="110" height="30" as="alternateBounds" />
          </mxGeometry>
        </mxCell>
        <mxCell id="TylbPrJ1LWOgCM8OSAjV-82" value="&lt;span style=&quot;text-align: left;&quot;&gt;3&lt;/span&gt;" style="shape=partialRectangle;connectable=0;fillColor=none;top=0;left=0;bottom=0;right=0;align=center;spacingLeft=6;overflow=hidden;whiteSpace=wrap;html=1;" parent="TylbPrJ1LWOgCM8OSAjV-75" vertex="1">
          <mxGeometry x="650" width="110" height="30" as="geometry">
            <mxRectangle width="110" height="30" as="alternateBounds" />
          </mxGeometry>
        </mxCell>
        <mxCell id="TylbPrJ1LWOgCM8OSAjV-107" style="edgeStyle=orthogonalEdgeStyle;rounded=0;orthogonalLoop=1;jettySize=auto;html=1;exitX=1;exitY=0.5;exitDx=0;exitDy=0;" parent="dBp1t12f0BtvVspTAIuh-1" source="FCFZZAjVjaETikw97Oay-90" target="FCFZZAjVjaETikw97Oay-82" edge="1">
          <mxGeometry relative="1" as="geometry">
            <mxPoint x="90" y="1505" as="sourcePoint" />
            <mxPoint x="717" y="1338" as="targetPoint" />
            <Array as="points">
              <mxPoint x="120" y="1505" />
            </Array>
          </mxGeometry>
        </mxCell>
        <mxCell id="TylbPrJ1LWOgCM8OSAjV-108" value="Contact Centre-2023" style="shape=table;startSize=37;container=1;collapsible=1;childLayout=tableLayout;fixedRows=1;rowLines=0;fontStyle=1;align=center;resizeLast=1;html=1;" parent="dBp1t12f0BtvVspTAIuh-1" vertex="1">
          <mxGeometry x="343" y="1250" width="580" height="93" as="geometry">
            <mxRectangle x="920" y="-310" width="70" height="30" as="alternateBounds" />
          </mxGeometry>
        </mxCell>
        <mxCell id="TylbPrJ1LWOgCM8OSAjV-109" style="shape=tableRow;horizontal=0;startSize=0;swimlaneHead=0;swimlaneBody=0;fillColor=none;collapsible=0;dropTarget=0;points=[[0,0.5],[1,0.5]];portConstraint=eastwest;top=0;left=0;right=0;bottom=1;" parent="TylbPrJ1LWOgCM8OSAjV-108" vertex="1">
          <mxGeometry y="37" width="580" height="26" as="geometry" />
        </mxCell>
        <mxCell id="TylbPrJ1LWOgCM8OSAjV-110" value="Year" style="shape=partialRectangle;connectable=0;fillColor=none;top=0;left=0;bottom=0;right=0;align=center;spacingLeft=6;fontStyle=1;overflow=hidden;whiteSpace=wrap;html=1;" parent="TylbPrJ1LWOgCM8OSAjV-109" vertex="1">
          <mxGeometry width="100" height="26" as="geometry">
            <mxRectangle width="100" height="26" as="alternateBounds" />
          </mxGeometry>
        </mxCell>
        <mxCell id="TylbPrJ1LWOgCM8OSAjV-111" value="Count(BI_ID)" style="shape=partialRectangle;connectable=0;fillColor=none;top=0;left=0;bottom=0;right=0;align=center;spacingLeft=6;fontStyle=1;overflow=hidden;whiteSpace=wrap;html=1;" parent="TylbPrJ1LWOgCM8OSAjV-109" vertex="1">
          <mxGeometry x="100" width="160" height="26" as="geometry">
            <mxRectangle width="160" height="26" as="alternateBounds" />
          </mxGeometry>
        </mxCell>
        <mxCell id="TylbPrJ1LWOgCM8OSAjV-112" value="Sum(Calls Offered)" style="shape=partialRectangle;connectable=0;fillColor=none;top=0;left=0;bottom=0;right=0;align=center;spacingLeft=6;fontStyle=1;overflow=hidden;whiteSpace=wrap;html=1;" parent="TylbPrJ1LWOgCM8OSAjV-109" vertex="1">
          <mxGeometry x="260" width="160" height="26" as="geometry">
            <mxRectangle width="160" height="26" as="alternateBounds" />
          </mxGeometry>
        </mxCell>
        <mxCell id="TylbPrJ1LWOgCM8OSAjV-113" value="Sum(Calls handled)" style="shape=partialRectangle;connectable=0;fillColor=none;top=0;left=0;bottom=0;right=0;align=center;spacingLeft=6;fontStyle=1;overflow=hidden;whiteSpace=wrap;html=1;" parent="TylbPrJ1LWOgCM8OSAjV-109" vertex="1">
          <mxGeometry x="420" width="160" height="26" as="geometry">
            <mxRectangle width="160" height="26" as="alternateBounds" />
          </mxGeometry>
        </mxCell>
        <mxCell id="TylbPrJ1LWOgCM8OSAjV-114" value="" style="shape=tableRow;horizontal=0;startSize=0;swimlaneHead=0;swimlaneBody=0;fillColor=none;collapsible=0;dropTarget=0;points=[[0,0.5],[1,0.5]];portConstraint=eastwest;top=0;left=0;right=0;bottom=1;" parent="TylbPrJ1LWOgCM8OSAjV-108" vertex="1">
          <mxGeometry y="63" width="580" height="30" as="geometry" />
        </mxCell>
        <mxCell id="TylbPrJ1LWOgCM8OSAjV-115" value="2024" style="shape=partialRectangle;connectable=0;fillColor=none;top=0;left=0;bottom=0;right=0;align=center;spacingLeft=6;fontStyle=0;overflow=hidden;whiteSpace=wrap;html=1;" parent="TylbPrJ1LWOgCM8OSAjV-114" vertex="1">
          <mxGeometry width="100" height="30" as="geometry">
            <mxRectangle width="100" height="30" as="alternateBounds" />
          </mxGeometry>
        </mxCell>
        <mxCell id="TylbPrJ1LWOgCM8OSAjV-116" value="&lt;span style=&quot;text-align: -webkit-right;&quot;&gt;365&lt;/span&gt;" style="shape=partialRectangle;connectable=0;fillColor=none;top=0;left=0;bottom=0;right=0;align=center;spacingLeft=6;fontStyle=0;overflow=hidden;whiteSpace=wrap;html=1;" parent="TylbPrJ1LWOgCM8OSAjV-114" vertex="1">
          <mxGeometry x="100" width="160" height="30" as="geometry">
            <mxRectangle width="160" height="30" as="alternateBounds" />
          </mxGeometry>
        </mxCell>
        <mxCell id="TylbPrJ1LWOgCM8OSAjV-117" value="&lt;span style=&quot;text-align: -webkit-right;&quot;&gt;234008&lt;/span&gt;" style="shape=partialRectangle;connectable=0;fillColor=none;top=0;left=0;bottom=0;right=0;align=center;spacingLeft=6;fontStyle=0;overflow=hidden;whiteSpace=wrap;html=1;" parent="TylbPrJ1LWOgCM8OSAjV-114" vertex="1">
          <mxGeometry x="260" width="160" height="30" as="geometry">
            <mxRectangle width="160" height="30" as="alternateBounds" />
          </mxGeometry>
        </mxCell>
        <mxCell id="TylbPrJ1LWOgCM8OSAjV-118" value="217457" style="shape=partialRectangle;connectable=0;fillColor=none;top=0;left=0;bottom=0;right=0;align=center;spacingLeft=6;fontStyle=0;overflow=hidden;whiteSpace=wrap;html=1;" parent="TylbPrJ1LWOgCM8OSAjV-114" vertex="1">
          <mxGeometry x="420" width="160" height="30" as="geometry">
            <mxRectangle width="160" height="30" as="alternateBounds" />
          </mxGeometry>
        </mxCell>
        <mxCell id="TylbPrJ1LWOgCM8OSAjV-120" value="&lt;font style=&quot;font-size: 18px;&quot;&gt;&lt;b&gt;Union&lt;/b&gt;&lt;/font&gt;" style="shape=ellipse;html=1;dashed=0;whiteSpace=wrap;perimeter=ellipsePerimeter;strokeColor=default;align=center;verticalAlign=middle;fontFamily=Helvetica;fontSize=12;fontColor=default;fillColor=default;" parent="dBp1t12f0BtvVspTAIuh-1" vertex="1">
          <mxGeometry x="257" y="1000" width="88.25" height="90" as="geometry" />
        </mxCell>
        <mxCell id="TylbPrJ1LWOgCM8OSAjV-126" value="Contact Centre Calls Handled Percentage" style="shape=table;startSize=30;container=1;collapsible=1;childLayout=tableLayout;fixedRows=1;rowLines=0;fontStyle=1;align=center;resizeLast=1;html=1;" parent="dBp1t12f0BtvVspTAIuh-1" vertex="1">
          <mxGeometry x="86.13" y="760" width="430" height="120" as="geometry">
            <mxRectangle x="920" y="-310" width="70" height="30" as="alternateBounds" />
          </mxGeometry>
        </mxCell>
        <mxCell id="TylbPrJ1LWOgCM8OSAjV-127" style="shape=tableRow;horizontal=0;startSize=0;swimlaneHead=0;swimlaneBody=0;fillColor=none;collapsible=0;dropTarget=0;points=[[0,0.5],[1,0.5]];portConstraint=eastwest;top=0;left=0;right=0;bottom=1;" parent="TylbPrJ1LWOgCM8OSAjV-126" vertex="1">
          <mxGeometry y="30" width="430" height="30" as="geometry" />
        </mxCell>
        <mxCell id="TylbPrJ1LWOgCM8OSAjV-128" value="Year" style="shape=partialRectangle;connectable=0;fillColor=none;top=0;left=0;bottom=0;right=0;align=center;spacingLeft=6;fontStyle=1;overflow=hidden;whiteSpace=wrap;html=1;" parent="TylbPrJ1LWOgCM8OSAjV-127" vertex="1">
          <mxGeometry width="100" height="30" as="geometry">
            <mxRectangle width="100" height="30" as="alternateBounds" />
          </mxGeometry>
        </mxCell>
        <mxCell id="TylbPrJ1LWOgCM8OSAjV-129" value="Count(BI_ID)" style="shape=partialRectangle;connectable=0;fillColor=none;top=0;left=0;bottom=0;right=0;align=center;spacingLeft=6;fontStyle=1;overflow=hidden;whiteSpace=wrap;html=1;" parent="TylbPrJ1LWOgCM8OSAjV-127" vertex="1">
          <mxGeometry x="100" width="110" height="30" as="geometry">
            <mxRectangle width="110" height="30" as="alternateBounds" />
          </mxGeometry>
        </mxCell>
        <mxCell id="TylbPrJ1LWOgCM8OSAjV-140" value="Sum(Calls Offered)" style="shape=partialRectangle;connectable=0;fillColor=none;top=0;left=0;bottom=0;right=0;align=center;spacingLeft=6;fontStyle=1;overflow=hidden;whiteSpace=wrap;html=1;" parent="TylbPrJ1LWOgCM8OSAjV-127" vertex="1">
          <mxGeometry x="210" width="110" height="30" as="geometry">
            <mxRectangle width="110" height="30" as="alternateBounds" />
          </mxGeometry>
        </mxCell>
        <mxCell id="TylbPrJ1LWOgCM8OSAjV-143" value="Sum( Calls Handled)" style="shape=partialRectangle;connectable=0;fillColor=none;top=0;left=0;bottom=0;right=0;align=center;spacingLeft=6;fontStyle=1;overflow=hidden;whiteSpace=wrap;html=1;" parent="TylbPrJ1LWOgCM8OSAjV-127" vertex="1">
          <mxGeometry x="320" width="110" height="30" as="geometry">
            <mxRectangle width="110" height="30" as="alternateBounds" />
          </mxGeometry>
        </mxCell>
        <mxCell id="TylbPrJ1LWOgCM8OSAjV-130" value="" style="shape=tableRow;horizontal=0;startSize=0;swimlaneHead=0;swimlaneBody=0;fillColor=none;collapsible=0;dropTarget=0;points=[[0,0.5],[1,0.5]];portConstraint=eastwest;top=0;left=0;right=0;bottom=1;" parent="TylbPrJ1LWOgCM8OSAjV-126" vertex="1">
          <mxGeometry y="60" width="430" height="30" as="geometry" />
        </mxCell>
        <mxCell id="TylbPrJ1LWOgCM8OSAjV-131" value="2023" style="shape=partialRectangle;connectable=0;fillColor=none;top=0;left=0;bottom=0;right=0;align=center;spacingLeft=6;fontStyle=0;overflow=hidden;whiteSpace=wrap;html=1;" parent="TylbPrJ1LWOgCM8OSAjV-130" vertex="1">
          <mxGeometry width="100" height="30" as="geometry">
            <mxRectangle width="100" height="30" as="alternateBounds" />
          </mxGeometry>
        </mxCell>
        <mxCell id="TylbPrJ1LWOgCM8OSAjV-132" value="213" style="shape=partialRectangle;connectable=0;fillColor=none;top=0;left=0;bottom=0;right=0;align=center;spacingLeft=6;fontStyle=0;overflow=hidden;whiteSpace=wrap;html=1;" parent="TylbPrJ1LWOgCM8OSAjV-130" vertex="1">
          <mxGeometry x="100" width="110" height="30" as="geometry">
            <mxRectangle width="110" height="30" as="alternateBounds" />
          </mxGeometry>
        </mxCell>
        <mxCell id="TylbPrJ1LWOgCM8OSAjV-141" value="400896" style="shape=partialRectangle;connectable=0;fillColor=none;top=0;left=0;bottom=0;right=0;align=center;spacingLeft=6;fontStyle=0;overflow=hidden;whiteSpace=wrap;html=1;" parent="TylbPrJ1LWOgCM8OSAjV-130" vertex="1">
          <mxGeometry x="210" width="110" height="30" as="geometry">
            <mxRectangle width="110" height="30" as="alternateBounds" />
          </mxGeometry>
        </mxCell>
        <mxCell id="TylbPrJ1LWOgCM8OSAjV-144" value="377605" style="shape=partialRectangle;connectable=0;fillColor=none;top=0;left=0;bottom=0;right=0;align=center;spacingLeft=6;fontStyle=0;overflow=hidden;whiteSpace=wrap;html=1;" parent="TylbPrJ1LWOgCM8OSAjV-130" vertex="1">
          <mxGeometry x="320" width="110" height="30" as="geometry">
            <mxRectangle width="110" height="30" as="alternateBounds" />
          </mxGeometry>
        </mxCell>
        <mxCell id="TylbPrJ1LWOgCM8OSAjV-133" style="shape=tableRow;horizontal=0;startSize=0;swimlaneHead=0;swimlaneBody=0;fillColor=none;collapsible=0;dropTarget=0;points=[[0,0.5],[1,0.5]];portConstraint=eastwest;top=0;left=0;right=0;bottom=1;" parent="TylbPrJ1LWOgCM8OSAjV-126" vertex="1">
          <mxGeometry y="90" width="430" height="30" as="geometry" />
        </mxCell>
        <mxCell id="TylbPrJ1LWOgCM8OSAjV-134" value="2024" style="shape=partialRectangle;connectable=0;fillColor=none;top=0;left=0;bottom=0;right=0;align=center;spacingLeft=6;fontStyle=0;overflow=hidden;whiteSpace=wrap;html=1;" parent="TylbPrJ1LWOgCM8OSAjV-133" vertex="1">
          <mxGeometry width="100" height="30" as="geometry">
            <mxRectangle width="100" height="30" as="alternateBounds" />
          </mxGeometry>
        </mxCell>
        <mxCell id="TylbPrJ1LWOgCM8OSAjV-135" value="365" style="shape=partialRectangle;connectable=0;fillColor=none;top=0;left=0;bottom=0;right=0;align=center;spacingLeft=6;fontStyle=0;overflow=hidden;whiteSpace=wrap;html=1;" parent="TylbPrJ1LWOgCM8OSAjV-133" vertex="1">
          <mxGeometry x="100" width="110" height="30" as="geometry">
            <mxRectangle width="110" height="30" as="alternateBounds" />
          </mxGeometry>
        </mxCell>
        <mxCell id="TylbPrJ1LWOgCM8OSAjV-142" value="234008" style="shape=partialRectangle;connectable=0;fillColor=none;top=0;left=0;bottom=0;right=0;align=center;spacingLeft=6;fontStyle=0;overflow=hidden;whiteSpace=wrap;html=1;" parent="TylbPrJ1LWOgCM8OSAjV-133" vertex="1">
          <mxGeometry x="210" width="110" height="30" as="geometry">
            <mxRectangle width="110" height="30" as="alternateBounds" />
          </mxGeometry>
        </mxCell>
        <mxCell id="TylbPrJ1LWOgCM8OSAjV-145" value="217457" style="shape=partialRectangle;connectable=0;fillColor=none;top=0;left=0;bottom=0;right=0;align=center;spacingLeft=6;fontStyle=0;overflow=hidden;whiteSpace=wrap;html=1;" parent="TylbPrJ1LWOgCM8OSAjV-133" vertex="1">
          <mxGeometry x="320" width="110" height="30" as="geometry">
            <mxRectangle width="110" height="30" as="alternateBounds" />
          </mxGeometry>
        </mxCell>
        <mxCell id="TylbPrJ1LWOgCM8OSAjV-139" style="edgeStyle=orthogonalEdgeStyle;rounded=0;orthogonalLoop=1;jettySize=auto;html=1;entryX=0.473;entryY=1.1;entryDx=0;entryDy=0;entryPerimeter=0;" parent="dBp1t12f0BtvVspTAIuh-1" edge="1">
          <mxGeometry relative="1" as="geometry">
            <Array as="points">
              <mxPoint x="362" y="929" />
              <mxPoint x="362" y="929" />
            </Array>
            <mxPoint x="362" y="969" as="sourcePoint" />
          </mxGeometry>
        </mxCell>
        <mxCell id="TylbPrJ1LWOgCM8OSAjV-146" value="&lt;font style=&quot;font-size: 18px;&quot;&gt;&lt;b&gt;/&lt;/b&gt;&lt;/font&gt;" style="shape=ellipse;html=1;dashed=0;whiteSpace=wrap;perimeter=ellipsePerimeter;strokeColor=default;align=center;verticalAlign=middle;fontFamily=Helvetica;fontSize=12;fontColor=default;fillColor=default;" parent="dBp1t12f0BtvVspTAIuh-1" vertex="1">
          <mxGeometry x="257" y="620" width="90" height="90" as="geometry" />
        </mxCell>
        <mxCell id="TylbPrJ1LWOgCM8OSAjV-148" value="" style="endArrow=classic;html=1;rounded=0;entryX=0.5;entryY=1;entryDx=0;entryDy=0;exitX=0.5;exitY=0;exitDx=0;exitDy=0;" parent="dBp1t12f0BtvVspTAIuh-1" source="TylbPrJ1LWOgCM8OSAjV-126" target="TylbPrJ1LWOgCM8OSAjV-146" edge="1">
          <mxGeometry width="50" height="50" relative="1" as="geometry">
            <mxPoint x="700" y="720" as="sourcePoint" />
            <mxPoint x="750" y="670" as="targetPoint" />
          </mxGeometry>
        </mxCell>
        <mxCell id="TylbPrJ1LWOgCM8OSAjV-149" value="" style="endArrow=classic;html=1;rounded=0;exitX=0.5;exitY=0;exitDx=0;exitDy=0;" parent="dBp1t12f0BtvVspTAIuh-1" source="TylbPrJ1LWOgCM8OSAjV-120" target="TylbPrJ1LWOgCM8OSAjV-133" edge="1">
          <mxGeometry width="50" height="50" relative="1" as="geometry">
            <mxPoint x="700" y="850" as="sourcePoint" />
            <mxPoint x="750" y="800" as="targetPoint" />
            <Array as="points" />
          </mxGeometry>
        </mxCell>
        <mxCell id="TylbPrJ1LWOgCM8OSAjV-150" value="Contact Centre Calls Handled Percentage" style="shape=table;startSize=40;container=1;collapsible=1;childLayout=tableLayout;fixedRows=1;rowLines=0;fontStyle=1;align=center;resizeLast=1;html=1;" parent="dBp1t12f0BtvVspTAIuh-1" vertex="1">
          <mxGeometry x="50" y="430" width="540" height="140" as="geometry">
            <mxRectangle x="920" y="-310" width="70" height="30" as="alternateBounds" />
          </mxGeometry>
        </mxCell>
        <mxCell id="TylbPrJ1LWOgCM8OSAjV-151" style="shape=tableRow;horizontal=0;startSize=0;swimlaneHead=0;swimlaneBody=0;fillColor=none;collapsible=0;dropTarget=0;points=[[0,0.5],[1,0.5]];portConstraint=eastwest;top=0;left=0;right=0;bottom=1;" parent="TylbPrJ1LWOgCM8OSAjV-150" vertex="1">
          <mxGeometry y="40" width="540" height="30" as="geometry" />
        </mxCell>
        <mxCell id="TylbPrJ1LWOgCM8OSAjV-152" value="Year" style="shape=partialRectangle;connectable=0;fillColor=none;top=0;left=0;bottom=0;right=0;align=center;spacingLeft=6;fontStyle=1;overflow=hidden;whiteSpace=wrap;html=1;" parent="TylbPrJ1LWOgCM8OSAjV-151" vertex="1">
          <mxGeometry width="100" height="30" as="geometry">
            <mxRectangle width="100" height="30" as="alternateBounds" />
          </mxGeometry>
        </mxCell>
        <mxCell id="TylbPrJ1LWOgCM8OSAjV-153" value="BI_ID" style="shape=partialRectangle;connectable=0;fillColor=none;top=0;left=0;bottom=0;right=0;align=center;spacingLeft=6;fontStyle=1;overflow=hidden;whiteSpace=wrap;html=1;" parent="TylbPrJ1LWOgCM8OSAjV-151" vertex="1">
          <mxGeometry x="100" width="110" height="30" as="geometry">
            <mxRectangle width="110" height="30" as="alternateBounds" />
          </mxGeometry>
        </mxCell>
        <mxCell id="TylbPrJ1LWOgCM8OSAjV-154" value="Calls Offered" style="shape=partialRectangle;connectable=0;fillColor=none;top=0;left=0;bottom=0;right=0;align=center;spacingLeft=6;fontStyle=1;overflow=hidden;whiteSpace=wrap;html=1;" parent="TylbPrJ1LWOgCM8OSAjV-151" vertex="1">
          <mxGeometry x="210" width="110" height="30" as="geometry">
            <mxRectangle width="110" height="30" as="alternateBounds" />
          </mxGeometry>
        </mxCell>
        <mxCell id="Dvh_mKx-WvRcS-OTIoeQ-12" value="Calls Handled" style="shape=partialRectangle;connectable=0;fillColor=none;top=0;left=0;bottom=0;right=0;align=center;spacingLeft=6;fontStyle=1;overflow=hidden;whiteSpace=wrap;html=1;" parent="TylbPrJ1LWOgCM8OSAjV-151" vertex="1">
          <mxGeometry x="320" width="110" height="30" as="geometry">
            <mxRectangle width="110" height="30" as="alternateBounds" />
          </mxGeometry>
        </mxCell>
        <mxCell id="Dvh_mKx-WvRcS-OTIoeQ-19" value="Calls Handled Percentage" style="shape=partialRectangle;connectable=0;fillColor=none;top=0;left=0;bottom=0;right=0;align=center;spacingLeft=6;fontStyle=1;overflow=hidden;whiteSpace=wrap;html=1;" parent="TylbPrJ1LWOgCM8OSAjV-151" vertex="1">
          <mxGeometry x="430" width="110" height="30" as="geometry">
            <mxRectangle width="110" height="30" as="alternateBounds" />
          </mxGeometry>
        </mxCell>
        <mxCell id="TylbPrJ1LWOgCM8OSAjV-156" value="" style="shape=tableRow;horizontal=0;startSize=0;swimlaneHead=0;swimlaneBody=0;fillColor=none;collapsible=0;dropTarget=0;points=[[0,0.5],[1,0.5]];portConstraint=eastwest;top=0;left=0;right=0;bottom=1;" parent="TylbPrJ1LWOgCM8OSAjV-150" vertex="1">
          <mxGeometry y="70" width="540" height="40" as="geometry" />
        </mxCell>
        <mxCell id="TylbPrJ1LWOgCM8OSAjV-157" value="2023" style="shape=partialRectangle;connectable=0;fillColor=none;top=0;left=0;bottom=0;right=0;align=center;spacingLeft=6;fontStyle=0;overflow=hidden;whiteSpace=wrap;html=1;" parent="TylbPrJ1LWOgCM8OSAjV-156" vertex="1">
          <mxGeometry width="100" height="40" as="geometry">
            <mxRectangle width="100" height="40" as="alternateBounds" />
          </mxGeometry>
        </mxCell>
        <mxCell id="TylbPrJ1LWOgCM8OSAjV-158" value="213" style="shape=partialRectangle;connectable=0;fillColor=none;top=0;left=0;bottom=0;right=0;align=center;spacingLeft=6;fontStyle=0;overflow=hidden;whiteSpace=wrap;html=1;" parent="TylbPrJ1LWOgCM8OSAjV-156" vertex="1">
          <mxGeometry x="100" width="110" height="40" as="geometry">
            <mxRectangle width="110" height="40" as="alternateBounds" />
          </mxGeometry>
        </mxCell>
        <mxCell id="TylbPrJ1LWOgCM8OSAjV-159" value="400896" style="shape=partialRectangle;connectable=0;fillColor=none;top=0;left=0;bottom=0;right=0;align=center;spacingLeft=6;fontStyle=0;overflow=hidden;whiteSpace=wrap;html=1;" parent="TylbPrJ1LWOgCM8OSAjV-156" vertex="1">
          <mxGeometry x="210" width="110" height="40" as="geometry">
            <mxRectangle width="110" height="40" as="alternateBounds" />
          </mxGeometry>
        </mxCell>
        <mxCell id="Dvh_mKx-WvRcS-OTIoeQ-13" value="377605" style="shape=partialRectangle;connectable=0;fillColor=none;top=0;left=0;bottom=0;right=0;align=center;spacingLeft=6;fontStyle=0;overflow=hidden;whiteSpace=wrap;html=1;" parent="TylbPrJ1LWOgCM8OSAjV-156" vertex="1">
          <mxGeometry x="320" width="110" height="40" as="geometry">
            <mxRectangle width="110" height="40" as="alternateBounds" />
          </mxGeometry>
        </mxCell>
        <mxCell id="Dvh_mKx-WvRcS-OTIoeQ-20" value="94.19" style="shape=partialRectangle;connectable=0;fillColor=none;top=0;left=0;bottom=0;right=0;align=center;spacingLeft=6;fontStyle=0;overflow=hidden;whiteSpace=wrap;html=1;" parent="TylbPrJ1LWOgCM8OSAjV-156" vertex="1">
          <mxGeometry x="430" width="110" height="40" as="geometry">
            <mxRectangle width="110" height="40" as="alternateBounds" />
          </mxGeometry>
        </mxCell>
        <mxCell id="TylbPrJ1LWOgCM8OSAjV-161" style="shape=tableRow;horizontal=0;startSize=0;swimlaneHead=0;swimlaneBody=0;fillColor=none;collapsible=0;dropTarget=0;points=[[0,0.5],[1,0.5]];portConstraint=eastwest;top=0;left=0;right=0;bottom=1;" parent="TylbPrJ1LWOgCM8OSAjV-150" vertex="1">
          <mxGeometry y="110" width="540" height="30" as="geometry" />
        </mxCell>
        <mxCell id="TylbPrJ1LWOgCM8OSAjV-162" value="2024" style="shape=partialRectangle;connectable=0;fillColor=none;top=0;left=0;bottom=0;right=0;align=center;spacingLeft=6;fontStyle=0;overflow=hidden;whiteSpace=wrap;html=1;" parent="TylbPrJ1LWOgCM8OSAjV-161" vertex="1">
          <mxGeometry width="100" height="30" as="geometry">
            <mxRectangle width="100" height="30" as="alternateBounds" />
          </mxGeometry>
        </mxCell>
        <mxCell id="TylbPrJ1LWOgCM8OSAjV-163" value="365" style="shape=partialRectangle;connectable=0;fillColor=none;top=0;left=0;bottom=0;right=0;align=center;spacingLeft=6;fontStyle=0;overflow=hidden;whiteSpace=wrap;html=1;" parent="TylbPrJ1LWOgCM8OSAjV-161" vertex="1">
          <mxGeometry x="100" width="110" height="30" as="geometry">
            <mxRectangle width="110" height="30" as="alternateBounds" />
          </mxGeometry>
        </mxCell>
        <mxCell id="TylbPrJ1LWOgCM8OSAjV-164" value="234008" style="shape=partialRectangle;connectable=0;fillColor=none;top=0;left=0;bottom=0;right=0;align=center;spacingLeft=6;fontStyle=0;overflow=hidden;whiteSpace=wrap;html=1;" parent="TylbPrJ1LWOgCM8OSAjV-161" vertex="1">
          <mxGeometry x="210" width="110" height="30" as="geometry">
            <mxRectangle width="110" height="30" as="alternateBounds" />
          </mxGeometry>
        </mxCell>
        <mxCell id="Dvh_mKx-WvRcS-OTIoeQ-14" value="217457" style="shape=partialRectangle;connectable=0;fillColor=none;top=0;left=0;bottom=0;right=0;align=center;spacingLeft=6;fontStyle=0;overflow=hidden;whiteSpace=wrap;html=1;" parent="TylbPrJ1LWOgCM8OSAjV-161" vertex="1">
          <mxGeometry x="320" width="110" height="30" as="geometry">
            <mxRectangle width="110" height="30" as="alternateBounds" />
          </mxGeometry>
        </mxCell>
        <mxCell id="Dvh_mKx-WvRcS-OTIoeQ-21" value="92.92" style="shape=partialRectangle;connectable=0;fillColor=none;top=0;left=0;bottom=0;right=0;align=center;spacingLeft=6;fontStyle=0;overflow=hidden;whiteSpace=wrap;html=1;" parent="TylbPrJ1LWOgCM8OSAjV-161" vertex="1">
          <mxGeometry x="430" width="110" height="30" as="geometry">
            <mxRectangle width="110" height="30" as="alternateBounds" />
          </mxGeometry>
        </mxCell>
        <mxCell id="XgvjUf7PpTd56C8issW9-0" value="100" style="rounded=0;whiteSpace=wrap;html=1;" parent="dBp1t12f0BtvVspTAIuh-1" vertex="1">
          <mxGeometry x="514" y="640" width="78" height="50" as="geometry" />
        </mxCell>
        <mxCell id="Dvh_mKx-WvRcS-OTIoeQ-0" value="" style="endArrow=classic;html=1;rounded=0;exitX=0;exitY=0.5;exitDx=0;exitDy=0;entryX=1;entryY=0.5;entryDx=0;entryDy=0;" parent="dBp1t12f0BtvVspTAIuh-1" source="XgvjUf7PpTd56C8issW9-0" target="TylbPrJ1LWOgCM8OSAjV-146" edge="1">
          <mxGeometry width="50" height="50" relative="1" as="geometry">
            <mxPoint x="700" y="460" as="sourcePoint" />
            <mxPoint x="430" y="305" as="targetPoint" />
          </mxGeometry>
        </mxCell>
        <mxCell id="Dvh_mKx-WvRcS-OTIoeQ-15" value="&lt;font style=&quot;font-size: 18px;&quot;&gt;&lt;b&gt;Remove Coloumn&lt;/b&gt;&lt;/font&gt;" style="shape=ellipse;html=1;dashed=0;whiteSpace=wrap;perimeter=ellipsePerimeter;strokeColor=default;align=center;verticalAlign=middle;fontFamily=Helvetica;fontSize=12;fontColor=default;fillColor=default;" parent="dBp1t12f0BtvVspTAIuh-1" vertex="1">
          <mxGeometry x="253" y="290" width="90" height="90" as="geometry" />
        </mxCell>
        <mxCell id="Dvh_mKx-WvRcS-OTIoeQ-16" value="" style="endArrow=classic;html=1;rounded=0;" parent="dBp1t12f0BtvVspTAIuh-1" source="TylbPrJ1LWOgCM8OSAjV-146" edge="1">
          <mxGeometry width="50" height="50" relative="1" as="geometry">
            <mxPoint x="490" y="790" as="sourcePoint" />
            <mxPoint x="302" y="570" as="targetPoint" />
          </mxGeometry>
        </mxCell>
        <mxCell id="Dvh_mKx-WvRcS-OTIoeQ-17" value="" style="endArrow=classic;html=1;rounded=0;exitX=0.5;exitY=0;exitDx=0;exitDy=0;" parent="dBp1t12f0BtvVspTAIuh-1" source="Dvh_mKx-WvRcS-OTIoeQ-15" edge="1">
          <mxGeometry width="50" height="50" relative="1" as="geometry">
            <mxPoint x="490" y="470" as="sourcePoint" />
            <mxPoint x="298" y="232" as="targetPoint" />
          </mxGeometry>
        </mxCell>
        <mxCell id="Dvh_mKx-WvRcS-OTIoeQ-18" value="" style="endArrow=classic;html=1;rounded=0;entryX=0.5;entryY=1;entryDx=0;entryDy=0;" parent="dBp1t12f0BtvVspTAIuh-1" target="Dvh_mKx-WvRcS-OTIoeQ-15" edge="1">
          <mxGeometry width="50" height="50" relative="1" as="geometry">
            <mxPoint x="298" y="430" as="sourcePoint" />
            <mxPoint x="540" y="420" as="targetPoint" />
          </mxGeometry>
        </mxCell>
        <mxCell id="Dvh_mKx-WvRcS-OTIoeQ-47" value="Contact Centre - 2024" style="shape=table;startSize=37;container=1;collapsible=1;childLayout=tableLayout;fixedRows=1;rowLines=0;fontStyle=1;align=center;resizeLast=1;html=1;" parent="dBp1t12f0BtvVspTAIuh-1" vertex="1">
          <mxGeometry x="299" y="1640" width="580" height="153" as="geometry">
            <mxRectangle x="920" y="-310" width="70" height="30" as="alternateBounds" />
          </mxGeometry>
        </mxCell>
        <mxCell id="Dvh_mKx-WvRcS-OTIoeQ-48" style="shape=tableRow;horizontal=0;startSize=0;swimlaneHead=0;swimlaneBody=0;fillColor=none;collapsible=0;dropTarget=0;points=[[0,0.5],[1,0.5]];portConstraint=eastwest;top=0;left=0;right=0;bottom=1;" parent="Dvh_mKx-WvRcS-OTIoeQ-47" vertex="1">
          <mxGeometry y="37" width="580" height="26" as="geometry" />
        </mxCell>
        <mxCell id="Dvh_mKx-WvRcS-OTIoeQ-49" value="Year" style="shape=partialRectangle;connectable=0;fillColor=none;top=0;left=0;bottom=0;right=0;align=center;spacingLeft=6;fontStyle=1;overflow=hidden;whiteSpace=wrap;html=1;" parent="Dvh_mKx-WvRcS-OTIoeQ-48" vertex="1">
          <mxGeometry width="100" height="26" as="geometry">
            <mxRectangle width="100" height="26" as="alternateBounds" />
          </mxGeometry>
        </mxCell>
        <mxCell id="Dvh_mKx-WvRcS-OTIoeQ-50" value="CallsOffered" style="shape=partialRectangle;connectable=0;fillColor=none;top=0;left=0;bottom=0;right=0;align=center;spacingLeft=6;fontStyle=1;overflow=hidden;whiteSpace=wrap;html=1;" parent="Dvh_mKx-WvRcS-OTIoeQ-48" vertex="1">
          <mxGeometry x="100" width="160" height="26" as="geometry">
            <mxRectangle width="160" height="26" as="alternateBounds" />
          </mxGeometry>
        </mxCell>
        <mxCell id="Dvh_mKx-WvRcS-OTIoeQ-51" value="Callshandled" style="shape=partialRectangle;connectable=0;fillColor=none;top=0;left=0;bottom=0;right=0;align=center;spacingLeft=6;fontStyle=1;overflow=hidden;whiteSpace=wrap;html=1;" parent="Dvh_mKx-WvRcS-OTIoeQ-48" vertex="1">
          <mxGeometry x="260" width="160" height="26" as="geometry">
            <mxRectangle width="160" height="26" as="alternateBounds" />
          </mxGeometry>
        </mxCell>
        <mxCell id="Dvh_mKx-WvRcS-OTIoeQ-52" value="BI_ID" style="shape=partialRectangle;connectable=0;fillColor=none;top=0;left=0;bottom=0;right=0;align=center;spacingLeft=6;fontStyle=1;overflow=hidden;whiteSpace=wrap;html=1;" parent="Dvh_mKx-WvRcS-OTIoeQ-48" vertex="1">
          <mxGeometry x="420" width="160" height="26" as="geometry">
            <mxRectangle width="160" height="26" as="alternateBounds" />
          </mxGeometry>
        </mxCell>
        <mxCell id="Dvh_mKx-WvRcS-OTIoeQ-53" value="" style="shape=tableRow;horizontal=0;startSize=0;swimlaneHead=0;swimlaneBody=0;fillColor=none;collapsible=0;dropTarget=0;points=[[0,0.5],[1,0.5]];portConstraint=eastwest;top=0;left=0;right=0;bottom=1;" parent="Dvh_mKx-WvRcS-OTIoeQ-47" vertex="1">
          <mxGeometry y="63" width="580" height="30" as="geometry" />
        </mxCell>
        <mxCell id="Dvh_mKx-WvRcS-OTIoeQ-54" value="2024" style="shape=partialRectangle;connectable=0;fillColor=none;top=0;left=0;bottom=0;right=0;align=center;spacingLeft=6;fontStyle=0;overflow=hidden;whiteSpace=wrap;html=1;" parent="Dvh_mKx-WvRcS-OTIoeQ-53" vertex="1">
          <mxGeometry width="100" height="30" as="geometry">
            <mxRectangle width="100" height="30" as="alternateBounds" />
          </mxGeometry>
        </mxCell>
        <mxCell id="Dvh_mKx-WvRcS-OTIoeQ-55" value="&lt;span style=&quot;text-align: -webkit-right;&quot;&gt;1252&lt;/span&gt;" style="shape=partialRectangle;connectable=0;fillColor=none;top=0;left=0;bottom=0;right=0;align=center;spacingLeft=6;fontStyle=0;overflow=hidden;whiteSpace=wrap;html=1;" parent="Dvh_mKx-WvRcS-OTIoeQ-53" vertex="1">
          <mxGeometry x="100" width="160" height="30" as="geometry">
            <mxRectangle width="160" height="30" as="alternateBounds" />
          </mxGeometry>
        </mxCell>
        <mxCell id="Dvh_mKx-WvRcS-OTIoeQ-56" value="&lt;span style=&quot;text-align: -webkit-right;&quot;&gt;1181&lt;/span&gt;" style="shape=partialRectangle;connectable=0;fillColor=none;top=0;left=0;bottom=0;right=0;align=center;spacingLeft=6;fontStyle=0;overflow=hidden;whiteSpace=wrap;html=1;" parent="Dvh_mKx-WvRcS-OTIoeQ-53" vertex="1">
          <mxGeometry x="260" width="160" height="30" as="geometry">
            <mxRectangle width="160" height="30" as="alternateBounds" />
          </mxGeometry>
        </mxCell>
        <mxCell id="Dvh_mKx-WvRcS-OTIoeQ-57" value="1" style="shape=partialRectangle;connectable=0;fillColor=none;top=0;left=0;bottom=0;right=0;align=center;spacingLeft=6;fontStyle=0;overflow=hidden;whiteSpace=wrap;html=1;" parent="Dvh_mKx-WvRcS-OTIoeQ-53" vertex="1">
          <mxGeometry x="420" width="160" height="30" as="geometry">
            <mxRectangle width="160" height="30" as="alternateBounds" />
          </mxGeometry>
        </mxCell>
        <mxCell id="Dvh_mKx-WvRcS-OTIoeQ-58" style="shape=tableRow;horizontal=0;startSize=0;swimlaneHead=0;swimlaneBody=0;fillColor=none;collapsible=0;dropTarget=0;points=[[0,0.5],[1,0.5]];portConstraint=eastwest;top=0;left=0;right=0;bottom=1;" parent="Dvh_mKx-WvRcS-OTIoeQ-47" vertex="1">
          <mxGeometry y="93" width="580" height="30" as="geometry" />
        </mxCell>
        <mxCell id="Dvh_mKx-WvRcS-OTIoeQ-59" value="2024" style="shape=partialRectangle;connectable=0;fillColor=none;top=0;left=0;bottom=0;right=0;align=center;spacingLeft=6;fontStyle=0;overflow=hidden;whiteSpace=wrap;html=1;" parent="Dvh_mKx-WvRcS-OTIoeQ-58" vertex="1">
          <mxGeometry width="100" height="30" as="geometry">
            <mxRectangle width="100" height="30" as="alternateBounds" />
          </mxGeometry>
        </mxCell>
        <mxCell id="Dvh_mKx-WvRcS-OTIoeQ-60" value="1380" style="shape=partialRectangle;connectable=0;fillColor=none;top=0;left=0;bottom=0;right=0;align=center;spacingLeft=6;fontStyle=0;overflow=hidden;whiteSpace=wrap;html=1;" parent="Dvh_mKx-WvRcS-OTIoeQ-58" vertex="1">
          <mxGeometry x="100" width="160" height="30" as="geometry">
            <mxRectangle width="160" height="30" as="alternateBounds" />
          </mxGeometry>
        </mxCell>
        <mxCell id="Dvh_mKx-WvRcS-OTIoeQ-61" value="1288" style="shape=partialRectangle;connectable=0;fillColor=none;top=0;left=0;bottom=0;right=0;align=center;spacingLeft=6;fontStyle=0;overflow=hidden;whiteSpace=wrap;html=1;" parent="Dvh_mKx-WvRcS-OTIoeQ-58" vertex="1">
          <mxGeometry x="260" width="160" height="30" as="geometry">
            <mxRectangle width="160" height="30" as="alternateBounds" />
          </mxGeometry>
        </mxCell>
        <mxCell id="Dvh_mKx-WvRcS-OTIoeQ-62" value="2" style="shape=partialRectangle;connectable=0;fillColor=none;top=0;left=0;bottom=0;right=0;align=center;spacingLeft=6;fontStyle=0;overflow=hidden;whiteSpace=wrap;html=1;" parent="Dvh_mKx-WvRcS-OTIoeQ-58" vertex="1">
          <mxGeometry x="420" width="160" height="30" as="geometry">
            <mxRectangle width="160" height="30" as="alternateBounds" />
          </mxGeometry>
        </mxCell>
        <mxCell id="Dvh_mKx-WvRcS-OTIoeQ-63" value="" style="shape=tableRow;horizontal=0;startSize=0;swimlaneHead=0;swimlaneBody=0;fillColor=none;collapsible=0;dropTarget=0;points=[[0,0.5],[1,0.5]];portConstraint=eastwest;top=0;left=0;right=0;bottom=0;" parent="Dvh_mKx-WvRcS-OTIoeQ-47" vertex="1">
          <mxGeometry y="123" width="580" height="30" as="geometry" />
        </mxCell>
        <mxCell id="Dvh_mKx-WvRcS-OTIoeQ-64" value="2024" style="shape=partialRectangle;connectable=0;fillColor=none;top=0;left=0;bottom=0;right=0;align=center;spacingLeft=6;overflow=hidden;whiteSpace=wrap;html=1;fontStyle=0" parent="Dvh_mKx-WvRcS-OTIoeQ-63" vertex="1">
          <mxGeometry width="100" height="30" as="geometry">
            <mxRectangle width="100" height="30" as="alternateBounds" />
          </mxGeometry>
        </mxCell>
        <mxCell id="Dvh_mKx-WvRcS-OTIoeQ-65" value="&lt;span style=&quot;color: rgb(0, 0, 0); font-family: Helvetica; font-size: 12px; font-style: normal; font-variant-ligatures: normal; font-variant-caps: normal; font-weight: 400; letter-spacing: normal; orphans: 2; text-align: -webkit-right; text-indent: 0px; text-transform: none; widows: 2; word-spacing: 0px; -webkit-text-stroke-width: 0px; white-space: normal; background-color: rgb(251, 251, 251); text-decoration-thickness: initial; text-decoration-style: initial; text-decoration-color: initial; display: inline !important; float: none;&quot;&gt;1563&lt;/span&gt;" style="shape=partialRectangle;connectable=0;fillColor=none;top=0;left=0;bottom=0;right=0;align=center;spacingLeft=6;overflow=hidden;whiteSpace=wrap;html=1;" parent="Dvh_mKx-WvRcS-OTIoeQ-63" vertex="1">
          <mxGeometry x="100" width="160" height="30" as="geometry">
            <mxRectangle width="160" height="30" as="alternateBounds" />
          </mxGeometry>
        </mxCell>
        <mxCell id="Dvh_mKx-WvRcS-OTIoeQ-66" value="&lt;span style=&quot;color: rgb(0, 0, 0); font-family: Helvetica; font-size: 12px; font-style: normal; font-variant-ligatures: normal; font-variant-caps: normal; font-weight: 400; letter-spacing: normal; orphans: 2; text-align: -webkit-right; text-indent: 0px; text-transform: none; widows: 2; word-spacing: 0px; -webkit-text-stroke-width: 0px; white-space: normal; background-color: rgb(251, 251, 251); text-decoration-thickness: initial; text-decoration-style: initial; text-decoration-color: initial; display: inline !important; float: none;&quot;&gt;1426&lt;/span&gt;" style="shape=partialRectangle;connectable=0;fillColor=none;top=0;left=0;bottom=0;right=0;align=center;spacingLeft=6;overflow=hidden;whiteSpace=wrap;html=1;" parent="Dvh_mKx-WvRcS-OTIoeQ-63" vertex="1">
          <mxGeometry x="260" width="160" height="30" as="geometry">
            <mxRectangle width="160" height="30" as="alternateBounds" />
          </mxGeometry>
        </mxCell>
        <mxCell id="Dvh_mKx-WvRcS-OTIoeQ-67" value="3" style="shape=partialRectangle;connectable=0;fillColor=none;top=0;left=0;bottom=0;right=0;align=center;spacingLeft=6;overflow=hidden;whiteSpace=wrap;html=1;" parent="Dvh_mKx-WvRcS-OTIoeQ-63" vertex="1">
          <mxGeometry x="420" width="160" height="30" as="geometry">
            <mxRectangle width="160" height="30" as="alternateBounds" />
          </mxGeometry>
        </mxCell>
      </root>
    </mxGraphModel>
  </diagram>
</mxfile>
